<svg width="400" height="400" viewBox="0 0 400 400" fill="none" xmlns="http://www.w3.org/2000/svg">
<path d="M183.78 49.2201C182.975 49.0419 182.23 48.6558 181.62 48.1001C180.861 48.8041 180.328 49.7182 180.089 50.7261C179.85 51.734 179.917 52.7902 180.28 53.7601C180.447 54.038 180.714 54.2422 181.026 54.3313C181.338 54.4204 181.672 54.3878 181.96 54.2401C183.42 53.7001 183.96 52.2401 184.2 50.8401C183.997 50.3185 183.856 49.7747 183.78 49.2201ZM207.88 53.3201C209.1 53.7001 209.2 52.7001 209.2 51.8001C209.251 50.8141 208.979 49.8384 208.428 49.0197C207.876 48.201 207.073 47.5836 206.14 47.2601C205.975 47.4184 205.794 47.5592 205.6 47.6801C205.6 49.3001 206 52.6001 207.88 53.3201ZM84.4804 100.48C83.2572 98.7107 82.5634 96.6295 82.4804 94.4801C82.4804 92.3001 84.1004 91.5001 85.9004 95.6201C86.4003 96.6787 86.815 97.7755 87.1404 98.9001C87.2804 99.3601 87.9804 99.2401 87.8804 98.6401C87.4007 95.9009 87.4007 93.0992 87.8804 90.3601C88.5004 87.6601 88.7004 82.7401 90.4404 81.5601C90.5602 81.4953 90.6942 81.4614 90.8304 81.4614C90.9665 81.4614 91.1006 81.4953 91.2204 81.5601C92.4804 82.2001 92.6604 87.0201 92.8404 87.9601C92.9815 90.1111 92.9815 92.2691 92.8404 94.4201C92.6004 94.9601 93.4004 95.3401 93.6204 94.8601C94.0825 94.011 94.669 93.2358 95.3604 92.5601C96.1004 92.0401 96.7004 92.7001 96.7804 93.5201C96.7091 95.4174 95.9482 97.2236 94.6404 98.6001C94.3404 98.9601 94.9204 99.4201 95.2204 99.0601C96.8204 97.2201 98.4004 95.0601 97.8004 92.5601C97.7414 92.1311 97.5448 91.7327 97.2401 91.425C96.9354 91.1173 96.539 90.9168 96.1106 90.8537C95.6821 90.7906 95.2448 90.8682 94.8643 91.0749C94.4837 91.2816 94.1806 91.6063 94.0004 92.0001C93.9831 88.6307 93.5737 85.2748 92.7804 82.0001C92.6906 81.5589 92.4614 81.1583 92.1267 80.8573C91.7919 80.5563 91.3693 80.3708 90.9211 80.3282C90.473 80.2857 90.023 80.3882 89.6375 80.6208C89.2521 80.8534 88.9516 81.2037 88.7804 81.6201C87.8099 83.3293 87.2102 85.2237 87.0204 87.1801C86.5639 89.505 86.3494 91.871 86.3804 94.2401C86.1964 93.7119 85.9089 93.2257 85.5345 92.8102C85.1602 92.3946 84.7066 92.058 84.2004 91.8201C83.9271 91.697 83.6297 91.637 83.3301 91.6443C83.0305 91.6517 82.7363 91.7263 82.4694 91.8626C82.2025 91.999 81.9697 92.1935 81.7881 92.4319C81.6065 92.6704 81.4809 92.9465 81.4204 93.2401C81.2353 94.6287 81.3483 96.0408 81.7518 97.3823C82.1553 98.7238 82.84 99.9639 83.7604 101.02C84.1204 101.42 84.8404 100.94 84.4804 100.48ZM186.92 47.3401C187.46 47.2401 192.16 46.1601 192.16 46.1601C192.39 46.1383 192.608 46.0458 192.784 45.8954C192.959 45.7451 193.084 45.5441 193.14 45.3201C194.14 44.3801 193.82 44.4801 195.14 44.7401C195.14 45.3001 195.14 45.9001 195.5 46.2601C195.664 46.3904 195.857 46.4786 196.063 46.517C196.269 46.5553 196.481 46.5427 196.68 46.4801C197.78 46.3201 202.44 45.5601 202.9 45.3601C203.095 45.26 203.258 45.1079 203.371 44.9208C203.484 44.7336 203.542 44.5187 203.54 44.3001C203.591 43.3407 203.591 42.3794 203.54 41.4201C203.54 39.7401 203.54 39.0401 203 38.6001C202.885 38.4964 202.748 38.4194 202.599 38.3745C202.451 38.3295 202.294 38.3178 202.14 38.3401C199.868 38.3893 197.602 38.6032 195.36 38.9801C194.76 39.2601 194.8 39.8001 194.82 40.2001C194.84 40.6001 195 42.3401 195.12 43.4801H194.8C194.529 43.4221 194.247 43.43 193.979 43.5031C193.711 43.5761 193.465 43.7123 193.26 43.9001C192.7 40.0001 192.82 39.6801 192.2 39.3201C190.48 38.7001 185.18 39.0201 184.2 41.1201C184.063 42.7053 184.158 44.302 184.48 45.8601C184.541 46.1187 184.653 46.3626 184.809 46.5775C184.965 46.7924 185.163 46.9741 185.39 47.1119C185.617 47.2496 185.869 47.3408 186.132 47.38C186.395 47.4192 186.663 47.4056 186.92 47.3401ZM202.12 39.4601C202.12 39.4601 202.48 44.3001 202.44 44.4001C202.4 44.5001 202.44 44.4001 202.2 44.5001C201.54 44.6401 196.82 45.3001 196.32 45.3601C196.32 44.7001 195.88 40.7801 195.86 40.0201C196.46 39.8601 201.48 39.5201 202.12 39.4601ZM185.16 41.7001C185.16 41.1001 185.92 40.8601 186.68 40.6001C188.17 40.0559 189.775 39.9044 191.34 40.1601C191.54 40.1601 191.54 40.1601 191.58 40.3801C191.62 40.6001 192 44.5401 192 44.8001C192 45.0601 187.62 46.0601 186.94 46.2001C186.7 46.2001 186.06 46.4601 185.78 46.2001C185.33 44.7438 185.121 43.2238 185.16 41.7001Z" fill="black"/>
<path d="M194.881 46.8604C194.853 46.8092 194.816 46.7639 194.771 46.7272C194.726 46.6904 194.674 46.6629 194.618 46.6462C194.562 46.6294 194.504 46.6239 194.446 46.6297C194.388 46.6356 194.332 46.6528 194.281 46.6804C194.23 46.708 194.184 46.7454 194.148 46.7905C194.111 46.8356 194.083 46.8874 194.067 46.9431C194.05 46.9989 194.044 47.0573 194.05 47.1152C194.056 47.1731 194.073 47.2292 194.101 47.2804C194.241 47.5604 194.981 49.4204 195.061 49.6204C194.808 49.8261 194.568 50.0465 194.341 50.2804C194.279 50.3596 194.243 50.4561 194.239 50.5565C194.235 50.6569 194.263 50.756 194.318 50.84C194.373 50.9239 194.453 50.9884 194.547 51.0244C194.641 51.0603 194.744 51.0659 194.841 51.0404C194.961 51.0404 196.321 50.2604 196.441 49.8804C196.471 49.7291 196.47 49.5734 196.439 49.4223C196.409 49.2712 196.348 49.1278 196.261 49.0004C196.121 48.7404 194.901 46.9204 194.881 46.8604ZM193.401 53.2004C192.871 53.2136 192.346 53.0965 191.871 52.8594C191.397 52.6222 190.988 52.2724 190.681 51.8404C190.631 51.7531 190.553 51.6855 190.459 51.6489C190.365 51.6124 190.262 51.609 190.166 51.6394C190.07 51.6698 189.987 51.7321 189.932 51.816C189.876 51.8999 189.851 52.0003 189.861 52.1004C189.975 52.4537 190.137 52.79 190.341 53.1004C190.659 53.6574 191.147 54.0978 191.734 54.357C192.321 54.6161 192.975 54.6804 193.601 54.5404C193.766 54.5008 193.911 54.4006 194.006 54.2596C194.101 54.1186 194.14 53.947 194.115 53.7788C194.09 53.6105 194.002 53.4578 193.87 53.3507C193.738 53.2437 193.571 53.19 193.401 53.2004ZM189.381 43.3804C189.381 43.2372 189.324 43.0999 189.223 42.9986C189.121 42.8973 188.984 42.8404 188.841 42.8404C188.698 42.8404 188.56 42.8973 188.459 42.9986C188.358 43.0999 188.301 43.2372 188.301 43.3804V45.0604C188.339 45.219 188.433 45.3586 188.565 45.4537C188.698 45.5488 188.86 45.5932 189.023 45.5786C189.185 45.5641 189.337 45.4916 189.45 45.3745C189.564 45.2573 189.631 45.1033 189.641 44.9404C189.641 44.9404 189.381 43.5004 189.381 43.3804ZM200.201 42.3804C200.176 42.2525 200.108 42.1371 200.008 42.0542C199.907 41.9712 199.781 41.9258 199.651 41.9258C199.521 41.9258 199.394 41.9712 199.294 42.0542C199.194 42.1371 199.125 42.2525 199.101 42.3804V44.0604C199.125 44.2123 199.203 44.3505 199.32 44.4496C199.438 44.5488 199.587 44.6023 199.741 44.6004C199.923 44.6005 200.098 44.5295 200.229 44.4025C200.36 44.2755 200.436 44.1026 200.441 43.9204C200.441 43.9204 200.201 42.5004 200.201 42.3804Z" fill="black"/>
<path d="M199.359 41.7802C199.689 41.7549 200.02 41.7968 200.333 41.9034C200.646 42.01 200.934 42.179 201.179 42.4002C201.248 42.4771 201.345 42.5235 201.448 42.5291C201.551 42.5347 201.652 42.4992 201.729 42.4302C201.806 42.3612 201.852 42.2646 201.858 42.1614C201.864 42.0583 201.828 41.9571 201.759 41.8802C201.506 41.4664 201.134 41.1383 200.691 40.9386C200.249 40.7389 199.757 40.6767 199.279 40.7602C198.639 40.7802 198.719 41.8202 199.359 41.7802ZM188.319 42.9602C188.448 42.7688 188.625 42.6146 188.832 42.5128C189.039 42.4111 189.269 42.3653 189.499 42.3802C189.616 42.3802 189.728 42.3338 189.81 42.2513C189.893 42.1688 189.939 42.0569 189.939 41.9402C189.939 41.8235 189.893 41.7116 189.81 41.6291C189.728 41.5466 189.616 41.5002 189.499 41.5002C189.083 41.3948 188.642 41.4546 188.269 41.6672C187.897 41.8797 187.62 42.2285 187.499 42.6402C187.399 43.0602 187.999 43.5202 188.319 42.9602ZM197.599 92.6202C197.157 92.5146 196.693 92.5551 196.277 92.7355C195.86 92.9159 195.513 93.2265 195.288 93.6208C195.062 94.0151 194.971 94.4717 195.027 94.9224C195.083 95.373 195.284 95.7933 195.599 96.1202C195.871 96.4159 196.215 96.6353 196.597 96.7568C196.98 96.8782 197.388 96.8975 197.78 96.8125C198.172 96.7276 198.536 96.5415 198.834 96.2727C199.132 96.0038 199.354 95.6617 199.479 95.2802C199.546 94.9807 199.549 94.6707 199.488 94.37C199.428 94.0693 199.305 93.7846 199.128 93.5341C198.951 93.2836 198.723 93.0729 198.46 92.9155C198.197 92.7581 197.904 92.6575 197.599 92.6202ZM198.579 94.8602C198.379 95.6202 197.099 95.7202 196.699 95.4202C196.531 95.3068 196.406 95.1412 196.342 94.9491C196.277 94.757 196.279 94.5491 196.345 94.3577C196.411 94.1662 196.538 94.002 196.707 93.8903C196.876 93.7787 197.077 93.7259 197.279 93.7402C197.999 93.7402 198.659 94.2002 198.579 94.8602ZM90.6792 198.94C93.2863 200.395 95.508 202.453 97.1592 204.94C97.1973 205.003 97.2474 205.058 97.3067 205.102C97.366 205.145 97.4333 205.177 97.5048 205.195C97.5763 205.212 97.6506 205.216 97.7234 205.205C97.7962 205.194 97.8661 205.168 97.9292 205.13C97.9922 205.092 98.0471 205.042 98.0908 204.983C98.1344 204.923 98.166 204.856 98.1836 204.785C98.2013 204.713 98.2047 204.639 98.1936 204.566C98.1825 204.493 98.1572 204.423 98.1192 204.36C97.3851 202.439 96.9598 200.414 96.8592 198.36C96.8592 198.249 96.8149 198.142 96.7361 198.063C96.6574 197.984 96.5506 197.94 96.4392 197.94C96.3278 197.94 96.2209 197.984 96.1422 198.063C96.0634 198.142 96.0192 198.249 96.0192 198.36C95.8647 199.4 95.7779 200.449 95.7592 201.5C94.3551 200.219 92.7634 199.16 91.0392 198.36C90.5792 198 90.2192 198.72 90.6792 198.94ZM102.679 220.7C103.804 221.297 104.869 222 105.859 222.8C105.965 222.906 106.109 222.966 106.259 222.966C106.409 222.966 106.553 222.906 106.659 222.8C106.765 222.694 106.825 222.55 106.825 222.4C106.825 222.25 106.765 222.106 106.659 222C106.021 220.967 105.65 219.792 105.579 218.58C105.579 218.469 105.535 218.362 105.456 218.283C105.377 218.204 105.271 218.16 105.159 218.16C105.048 218.16 104.941 218.204 104.862 218.283C104.783 218.362 104.739 218.469 104.739 218.58C104.647 219.244 104.647 219.917 104.739 220.58C104.121 220.308 103.486 220.074 102.839 219.88C102.73 219.859 102.618 219.882 102.526 219.944C102.434 220.006 102.37 220.101 102.349 220.21C102.328 220.319 102.351 220.432 102.413 220.524C102.475 220.615 102.57 220.679 102.679 220.7ZM118.619 180.64C118.907 181.216 119.154 181.81 119.359 182.42C119.351 182.619 119.284 182.811 119.166 182.971C119.049 183.131 118.886 183.253 118.699 183.32C118.616 183.358 118.546 183.422 118.502 183.502C118.459 183.582 118.442 183.675 118.456 183.766C118.469 183.856 118.512 183.94 118.578 184.004C118.643 184.068 118.728 184.109 118.819 184.12C119.139 184.086 119.444 183.968 119.704 183.779C119.964 183.591 120.17 183.337 120.302 183.043C120.433 182.75 120.486 182.427 120.453 182.107C120.421 181.788 120.306 181.482 120.119 181.22C119.387 180.042 118.784 178.788 118.319 177.48C118.303 177.363 118.242 177.258 118.148 177.187C118.054 177.115 117.936 177.084 117.819 177.1C117.702 177.116 117.597 177.178 117.526 177.271C117.454 177.365 117.423 177.484 117.439 177.6C117.709 178.657 118.105 179.678 118.619 180.64ZM114.879 190.96C115.029 190.956 115.172 190.899 115.282 190.798C115.392 190.697 115.463 190.56 115.48 190.411C115.497 190.263 115.459 190.113 115.375 189.99C115.29 189.866 115.164 189.778 115.019 189.74C112.699 189.32 109.739 188.84 109.019 186.38C108.978 186.292 108.907 186.221 108.819 186.179C108.731 186.137 108.631 186.127 108.537 186.15C108.442 186.174 108.359 186.23 108.301 186.308C108.243 186.387 108.214 186.483 108.219 186.58C109.159 190.24 113.539 190.86 114.879 190.96ZM112.259 175.2C112.259 175.36 112.119 177.06 112.119 177.2C112.119 177.367 112.184 177.526 112.299 177.646C112.415 177.765 112.573 177.835 112.739 177.84C112.824 177.843 112.908 177.828 112.987 177.797C113.066 177.766 113.138 177.719 113.198 177.659C113.258 177.599 113.305 177.527 113.336 177.448C113.367 177.369 113.382 177.285 113.379 177.2C113.379 176.84 113.259 175.48 113.259 175.2C113.259 175.068 113.206 174.94 113.113 174.847C113.019 174.753 112.892 174.7 112.759 174.7C112.627 174.7 112.499 174.753 112.406 174.847C112.312 174.94 112.259 175.068 112.259 175.2ZM123.379 174.9C123.356 174.787 123.295 174.686 123.206 174.613C123.116 174.54 123.004 174.5 122.889 174.5C122.774 174.5 122.662 174.54 122.573 174.613C122.483 174.686 122.422 174.787 122.399 174.9C122.299 176.78 122.099 177.06 122.399 177.4C122.49 177.486 122.603 177.543 122.726 177.565C122.849 177.587 122.975 177.573 123.09 177.524C123.205 177.475 123.303 177.394 123.372 177.29C123.441 177.187 123.478 177.065 123.479 176.94C123.519 176.58 123.399 175.22 123.379 174.9ZM111.519 174.4C111.602 174.139 111.764 173.911 111.983 173.746C112.201 173.581 112.466 173.488 112.739 173.48H112.999C113.137 173.455 113.262 173.382 113.351 173.274C113.441 173.166 113.49 173.03 113.49 172.89C113.49 172.75 113.441 172.614 113.351 172.506C113.262 172.399 113.137 172.326 112.999 172.3C112.446 172.316 111.915 172.525 111.499 172.89C111.083 173.255 110.807 173.754 110.719 174.3C110.693 174.36 110.682 174.425 110.685 174.49C110.689 174.555 110.707 174.619 110.74 174.675C110.772 174.732 110.817 174.78 110.871 174.817C110.926 174.853 110.988 174.876 111.052 174.884C111.117 174.892 111.183 174.885 111.244 174.863C111.306 174.841 111.361 174.806 111.407 174.759C111.452 174.712 111.486 174.655 111.505 174.593C111.525 174.531 111.53 174.465 111.519 174.4ZM122.439 172.74C122.648 172.678 122.87 172.678 123.079 172.74C123.191 172.79 123.288 172.868 123.362 172.966C123.435 173.064 123.483 173.179 123.499 173.3C123.532 173.422 123.611 173.525 123.72 173.589C123.828 173.652 123.957 173.671 124.079 173.64C124.779 173.46 124.259 172.38 123.679 171.92C122.679 171.1 121.539 171.54 121.679 172.28C121.689 172.366 121.718 172.448 121.764 172.52C121.81 172.592 121.872 172.653 121.946 172.698C122.019 172.742 122.102 172.769 122.187 172.776C122.273 172.784 122.359 172.771 122.439 172.74ZM73.7792 243.1C75.7739 238.203 78.7571 233.77 82.5424 230.077C86.3278 226.385 90.8338 223.513 95.7792 221.64C95.8928 221.586 95.9827 221.492 96.0322 221.376C96.0817 221.26 96.0874 221.13 96.0483 221.01C96.0092 220.89 95.9279 220.789 95.8195 220.724C95.7111 220.66 95.5831 220.637 95.4592 220.66C90.3034 222.465 85.608 225.383 81.7058 229.206C77.8036 233.028 74.7902 237.663 72.8792 242.78C72.8367 242.9 72.8434 243.031 72.8978 243.145C72.9522 243.26 73.0498 243.348 73.1692 243.39C73.2885 243.433 73.4198 243.426 73.5342 243.372C73.6486 243.317 73.7367 243.22 73.7792 243.1ZM83.0392 251.78C82.9384 251.884 82.8828 252.023 82.8847 252.167C82.8866 252.312 82.9457 252.449 83.0492 252.55C83.1526 252.651 83.2918 252.707 83.4362 252.705C83.5806 252.703 83.7184 252.644 83.8192 252.54C89.5533 246.984 96.4442 242.764 103.999 240.18C104.086 240.13 104.154 240.052 104.191 239.958C104.227 239.865 104.231 239.761 104.2 239.665C104.17 239.569 104.107 239.487 104.024 239.431C103.94 239.376 103.839 239.351 103.739 239.36C95.8282 241.518 88.6656 245.815 83.0392 251.78ZM305.219 157.04C313.559 160.86 324.099 154.22 325.059 145.22C325.066 145.072 325.018 144.926 324.924 144.811C324.83 144.696 324.697 144.62 324.55 144.598C324.404 144.576 324.254 144.608 324.13 144.69C324.006 144.772 323.917 144.897 323.879 145.04C321.879 155.04 311.739 159.22 305.619 156.24C305.513 156.187 305.39 156.178 305.278 156.216C305.165 156.253 305.072 156.334 305.019 156.44C304.966 156.546 304.957 156.669 304.995 156.782C305.032 156.894 305.113 156.987 305.219 157.04ZM307.199 138C307.617 138.219 308.099 138.282 308.559 138.18C308.644 138.153 308.718 138.1 308.77 138.028C308.823 137.956 308.851 137.869 308.851 137.78C308.851 137.691 308.823 137.604 308.77 137.533C308.718 137.461 308.644 137.407 308.559 137.38C308.224 137.253 307.902 137.092 307.599 136.9C307.599 136.54 308.039 134.72 308.119 134.4C308.136 134.294 308.113 134.185 308.056 134.095C307.998 134.004 307.909 133.938 307.805 133.908C307.702 133.878 307.591 133.888 307.494 133.934C307.398 133.981 307.321 134.061 307.279 134.16C306.539 136.66 305.639 137.38 307.199 138ZM313.679 142.88C314.564 142.877 315.422 142.581 316.121 142.039C316.819 141.496 317.318 140.737 317.539 139.88C317.554 139.77 317.529 139.657 317.467 139.564C317.405 139.471 317.312 139.404 317.204 139.374C317.097 139.345 316.982 139.356 316.882 139.405C316.781 139.454 316.702 139.537 316.659 139.64C316.43 140.237 316.023 140.748 315.494 141.106C314.964 141.463 314.338 141.65 313.699 141.64C313.561 141.673 313.438 141.751 313.348 141.862C313.259 141.973 313.21 142.11 313.208 142.252C313.205 142.395 313.25 142.533 313.336 142.647C313.421 142.761 313.542 142.843 313.679 142.88ZM304.659 131.38C304.637 131.272 304.578 131.175 304.492 131.105C304.407 131.036 304.3 130.998 304.189 130.998C304.079 130.998 303.972 131.036 303.886 131.105C303.801 131.175 303.742 131.272 303.719 131.38C303.64 132.118 303.64 132.862 303.719 133.6C303.762 133.765 303.868 133.905 304.014 133.992C304.16 134.078 304.335 134.103 304.499 134.06C304.664 134.018 304.804 133.912 304.891 133.765C304.977 133.619 305.002 133.445 304.959 133.28C304.821 132.653 304.721 132.019 304.659 131.38ZM312.839 133.3C312.839 133 312.599 131.84 312.559 131.64C312.541 131.518 312.474 131.409 312.375 131.335C312.276 131.262 312.151 131.232 312.029 131.25C311.907 131.269 311.798 131.335 311.724 131.434C311.651 131.534 311.621 131.658 311.639 131.78V133.28C311.614 133.371 311.61 133.467 311.627 133.56C311.645 133.653 311.683 133.741 311.74 133.817C311.797 133.893 311.87 133.955 311.954 133.998C312.038 134.041 312.132 134.064 312.226 134.066C312.321 134.068 312.415 134.047 312.5 134.007C312.586 133.967 312.661 133.907 312.721 133.833C312.78 133.76 312.821 133.673 312.842 133.581C312.862 133.488 312.861 133.392 312.839 133.3ZM312.379 128.4C312.692 128.44 312.986 128.571 313.224 128.778C313.463 128.984 313.635 129.256 313.719 129.56C313.735 129.617 313.762 129.669 313.798 129.716C313.834 129.762 313.879 129.8 313.93 129.829C313.981 129.858 314.037 129.876 314.095 129.883C314.154 129.89 314.213 129.886 314.269 129.87C314.326 129.854 314.378 129.828 314.425 129.792C314.471 129.755 314.509 129.71 314.538 129.659C314.567 129.608 314.585 129.552 314.592 129.494C314.599 129.436 314.595 129.377 314.579 129.32C314.079 127.32 312.079 126.86 311.959 127.84C311.942 127.97 311.976 128.101 312.055 128.206C312.133 128.311 312.25 128.38 312.379 128.4ZM242.919 214.24C242.239 214.82 239.879 217.38 239.299 218.08C238.719 218.78 239.599 219.16 239.979 218.7C240.359 218.24 243.079 215.72 243.759 215.16C243.819 215.107 243.867 215.042 243.902 214.97C243.936 214.898 243.955 214.82 243.959 214.74C243.968 214.616 243.94 214.492 243.877 214.384C243.815 214.276 243.722 214.19 243.609 214.136C243.497 214.082 243.371 214.063 243.248 214.082C243.125 214.1 243.01 214.156 242.919 214.24ZM255.099 205.68L250.199 209.68C249.719 210.04 250.299 210.82 250.779 210.46L255.959 206.78C256.039 206.727 256.107 206.657 256.159 206.576C256.211 206.495 256.245 206.404 256.261 206.309C256.276 206.214 256.271 206.117 256.247 206.024C256.223 205.931 256.18 205.843 256.121 205.768C256.062 205.692 255.987 205.629 255.903 205.583C255.818 205.537 255.725 205.51 255.629 205.501C255.533 205.493 255.437 205.505 255.345 205.536C255.254 205.566 255.17 205.616 255.099 205.68ZM266.479 202.52C264.361 202.482 262.249 202.772 260.219 203.38C260.107 203.423 260.016 203.506 259.962 203.613C259.908 203.72 259.897 203.844 259.929 203.959C259.962 204.074 260.036 204.173 260.138 204.236C260.24 204.299 260.361 204.322 260.479 204.3C262.447 203.852 264.461 203.631 266.479 203.64C266.628 203.64 266.77 203.581 266.875 203.476C266.98 203.371 267.039 203.229 267.039 203.08C267.039 202.932 266.98 202.789 266.875 202.684C266.77 202.579 266.628 202.52 266.479 202.52ZM279.499 206.28C277.729 204.992 275.668 204.161 273.499 203.86C273.362 203.836 273.22 203.867 273.105 203.945C272.989 204.024 272.908 204.144 272.879 204.28C272.679 205.32 274.239 204.28 278.879 207.3C279.519 207.74 280.099 206.74 279.499 206.28ZM298.899 216.94C297.859 216.24 293.379 214.28 292.159 213.68C292.045 213.637 291.918 213.637 291.804 213.68C291.69 213.724 291.595 213.808 291.538 213.916C291.482 214.024 291.467 214.15 291.496 214.269C291.526 214.387 291.598 214.491 291.699 214.56C292.839 215.14 297.179 217.62 298.379 218.06C298.525 218.112 298.685 218.108 298.827 218.048C298.97 217.989 299.085 217.878 299.15 217.737C299.215 217.597 299.226 217.438 299.179 217.29C299.133 217.143 299.033 217.018 298.899 216.94Z" fill="black"/>
<path d="M373.999 280.32C373.973 280.275 373.935 280.237 373.89 280.21C373.844 280.184 373.792 280.17 373.739 280.17C373.687 280.17 373.635 280.184 373.589 280.21C373.544 280.237 373.506 280.275 373.479 280.32C373.38 280.411 373.263 280.481 373.136 280.526C373.009 280.57 372.874 280.589 372.739 280.58C372.379 280.58 372.059 280.1 371.819 279.4C370.939 276.82 368.279 266.66 367.319 262.46C367.119 261.56 367.319 261.08 367.659 261C367.999 260.92 368.499 261.26 368.679 261.96C369.059 263.4 372.679 277.14 373.079 278.82C373.093 278.871 373.119 278.918 373.156 278.955C373.192 278.993 373.238 279.02 373.289 279.034C373.34 279.049 373.393 279.049 373.444 279.036C373.495 279.023 373.542 278.997 373.579 278.96C387.059 264.12 388.599 243.84 385.579 229.82C379.579 201.82 356.439 186.64 350.679 183.26C350.559 181.26 350.339 179.12 349.999 176.68C348.439 165.56 341.859 151.48 328.439 148.14C330.755 139.194 330.699 129.799 328.279 120.88C327.795 118.955 326.969 117.133 325.839 115.5C319.399 108.24 305.539 109.82 300.939 118.38C299.799 120.64 301.339 121.52 300.659 124.6C298.728 131.568 298.818 138.942 300.919 145.86C296.759 146.08 295.419 150 297.699 153.62C294.864 154.731 292.294 156.425 290.154 158.592C288.015 160.759 286.354 163.351 285.279 166.2L267.019 162.56C269.619 139.96 259.879 121.84 246.059 113.58C248.739 106.6 245.839 101.44 240.059 99.4402C246.979 94.4002 252.959 87.5802 261.399 85.3202C262.879 84.9602 263.119 83.7202 263.179 82.5802C263.179 81.9202 263.179 80.5802 263.299 80.2802C264.593 79.7812 265.761 79.0027 266.719 78.0002C267.192 77.4814 267.781 77.0836 268.439 76.8402C269.478 76.5191 270.348 75.8001 270.859 74.8402C272.949 74.8793 275.039 74.7992 277.119 74.6002C277.702 74.5284 278.255 74.3004 278.719 73.9402C278.943 73.6636 279.088 73.3325 279.141 72.9809C279.194 72.6294 279.152 72.2702 279.019 71.9402C279.34 71.1991 279.375 70.3659 279.119 69.6002C279.226 69.1595 279.228 68.6997 279.124 68.2583C279.019 67.817 278.812 67.4064 278.519 67.0602C276.719 65.0602 271.859 65.5802 269.199 65.8002C269.233 64.8177 268.958 63.8493 268.413 63.0313C267.867 62.2133 267.079 61.5869 266.159 61.2402C266.068 61.2086 265.969 61.2024 265.874 61.2221C265.779 61.2418 265.691 61.2868 265.619 61.3523C265.548 61.4178 265.495 61.5014 265.467 61.5943C265.439 61.6872 265.436 61.786 265.459 61.8802C264.859 67.1802 262.079 66.2402 260.859 70.4202C260.731 70.1601 260.551 69.929 260.33 69.7413C260.109 69.5536 259.852 69.4132 259.574 69.3289C259.297 69.2445 259.005 69.218 258.717 69.2509C258.429 69.2838 258.151 69.3755 257.899 69.5202C248.979 72.5802 240.639 77.3402 231.779 80.4602C226.58 71.5147 218.683 64.4439 209.219 60.2602C209.617 59.6746 209.775 58.9586 209.659 58.2602C210.29 58.6684 211.033 58.8668 211.783 58.8269C212.533 58.7871 213.251 58.5111 213.835 58.0384C214.418 57.5658 214.838 56.9206 215.032 56.1953C215.227 55.47 215.188 54.7017 214.919 54.0002C215.7 54.2897 216.556 54.3043 217.346 54.0417C218.136 53.7792 218.813 53.2551 219.265 52.556C219.717 51.8569 219.918 51.0245 219.833 50.1962C219.748 49.368 219.384 48.5934 218.799 48.0002C219.801 48.0318 220.783 47.7173 221.58 47.1096C222.377 46.5019 222.941 45.6382 223.176 44.6637C223.41 43.6893 223.302 42.6638 222.869 41.7597C222.437 40.8557 221.706 40.1284 220.799 39.7002C221.415 39.1899 221.874 38.5157 222.124 37.7555C222.373 36.9953 222.402 36.1801 222.207 35.4042C222.013 34.6283 221.603 33.9232 221.024 33.3704C220.446 32.8176 219.723 32.4396 218.939 32.2802C219.6 31.7369 220.095 31.0194 220.369 30.2091C220.643 29.3987 220.684 28.5279 220.489 27.6953C220.293 26.8626 219.868 26.1014 219.262 25.4978C218.656 24.8943 217.893 24.4725 217.059 24.2802C217.337 23.4308 217.387 22.5233 217.204 21.6486C217.02 20.7739 216.611 19.9627 216.015 19.2963C215.42 18.6299 214.659 18.1316 213.811 17.8515C212.962 17.5714 212.055 17.5192 211.179 17.7002C210.399 16.5204 209.33 15.5606 208.073 14.9127C206.815 14.2649 205.413 13.9507 203.999 14.0002C203.785 13.3802 203.405 12.8305 202.901 12.4106C202.397 11.9906 201.788 11.7164 201.139 11.6176C200.491 11.5188 199.827 11.5991 199.221 11.8498C198.615 12.1005 198.089 12.5122 197.699 13.0402C197.083 12.0437 196.221 11.2213 195.198 10.651C194.174 10.0806 193.021 9.78125 191.849 9.78125C190.677 9.78125 189.525 10.0806 188.501 10.651C187.477 11.2213 186.616 12.0437 185.999 13.0402C185.187 12.417 184.212 12.0406 183.192 11.9558C182.171 11.8711 181.148 12.0815 180.244 12.5621C179.339 13.0427 178.592 13.7731 178.092 14.6664C177.591 15.5597 177.358 16.5781 177.419 17.6002C176.618 17.4554 175.793 17.5151 175.021 17.7737C174.249 18.0323 173.555 18.4815 173.003 19.0797C172.45 19.6779 172.058 20.4058 171.861 21.1959C171.665 21.9861 171.671 22.8131 171.879 23.6002C171.102 23.6027 170.343 23.8316 169.693 24.2588C169.044 24.6861 168.533 25.2933 168.224 26.0061C167.914 26.7189 167.818 27.5065 167.949 28.2727C168.08 29.0389 168.431 29.7504 168.959 30.3202C164.819 34.0802 162.259 38.9002 166.259 40.2202C165.265 40.8351 164.451 41.7023 163.901 42.7338C163.35 43.7652 163.083 44.924 163.125 46.0923C163.168 47.2607 163.519 48.3969 164.144 49.3854C164.768 50.3739 165.643 51.1795 166.679 51.7202C166.764 52.1561 166.936 52.5702 167.186 52.9375C167.436 53.3048 167.757 53.6177 168.131 53.857C168.505 54.0964 168.924 54.2573 169.362 54.3301C169.8 54.4028 170.248 54.3858 170.679 54.2802C170.605 54.8006 170.677 55.3314 170.887 55.8134C171.096 56.2955 171.436 56.7099 171.867 57.0105C172.298 57.3111 172.804 57.4861 173.329 57.5161C173.854 57.5461 174.377 57.4298 174.839 57.1802C175.284 57.3876 175.769 57.495 176.259 57.495C176.75 57.495 177.235 57.3876 177.679 57.1802C177.9 58.1567 178.393 59.0506 179.101 59.7585C179.809 60.4664 180.703 60.9593 181.679 61.1802C164.079 67.6402 151.579 84.9202 156.499 102.98C155.769 102.89 155.03 102.89 154.299 102.98C144.719 103.52 140.899 110 144.119 118.66C140.953 121.192 138.247 124.25 136.119 127.7C130.51 135.34 127.2 144.423 126.579 153.88C123.404 150.633 119.41 148.304 115.019 147.14C115.559 143.7 119.019 117.56 119.019 117.56C119.748 117.501 120.471 117.381 121.179 117.2C121.581 117.151 121.949 116.953 122.211 116.646C122.474 116.338 122.612 115.944 122.599 115.54C123.919 101.54 123.899 102.52 123.639 102.24C123.379 101.96 123.319 102.02 119.919 102.24C124.199 95.0002 130.399 87.6402 130.039 79.0602C129.699 71.0602 123.779 69.6802 117.859 74.1002C119.156 68.8674 119.407 63.4303 118.599 58.1002C118.53 56.8676 118.104 55.6818 117.372 54.6874C116.641 53.6931 115.636 52.9331 114.479 52.5002C110.299 51.3202 105.659 53.9002 102.599 57.0602C104.979 48.0602 104.299 35.4602 98.2594 28.6202C96.6103 26.8123 94.4274 25.5776 92.0283 25.0956C89.6292 24.6136 87.1388 24.9095 84.9194 25.9402C75.3594 30.7002 75.9994 47.4802 76.5594 57.2602C75.6881 56.283 74.6119 55.51 73.4075 54.9964C72.2031 54.4828 70.9003 54.2413 69.5918 54.2891C68.2834 54.3368 67.0016 54.6727 65.8379 55.2727C64.6742 55.8727 63.6572 56.722 62.8594 57.7602C57.7394 64.7802 61.5194 77.0202 65.9594 84.1402C60.7194 81.4602 55.5394 84.7402 55.2394 88.9202C55.3193 91.7355 56.1032 94.4858 57.5194 96.9202C59.4411 101.338 63.0378 104.812 67.5194 106.58L60.8594 107.4C60.7268 107.415 60.6044 107.478 60.5158 107.578C60.4272 107.678 60.3786 107.807 60.3794 107.94C60.5394 110.42 61.5994 118.08 61.8994 119.44C62.2794 121.44 63.0994 122.16 65.0994 121.98C65.9594 125.26 74.8794 159.18 75.4394 160.74C75.8224 161.992 76.5688 163.101 77.5838 163.927C78.5987 164.753 79.8363 165.259 81.1394 165.38C78.8794 171.38 79.8794 177.86 81.6594 184.46C39.0594 190.46 10.1594 230.6 13.2994 273.52C12.9794 309.8 34.3994 343.2 68.7994 356.22C65.6594 356.42 63.0594 357.78 62.3994 360.84C61.5994 365.94 69.2594 370.84 73.1994 372.84C72.4315 372.98 71.7263 373.356 71.1815 373.915C70.6368 374.474 70.2796 375.189 70.1594 375.96C69.7994 379.28 72.1594 382.6 74.5594 384.64C86.3794 393.46 116.559 390.08 130.939 386.64C132.103 386.497 133.183 385.961 133.999 385.12C135.632 382.411 136.529 379.322 136.599 376.16C136.719 374.62 136.599 373.18 135.039 372.9C137.199 371.78 140.199 369.82 141.039 367.28C149.307 367.335 157.562 366.625 165.699 365.16C180.699 362.34 188.499 360.5 201.839 349.4C206.263 345.817 210.084 341.55 213.159 336.76C216.459 331.44 219.879 325.94 218.559 319.76C218.324 318.501 217.863 317.295 217.199 316.2C221.079 318.82 244.779 334.68 246.779 335.98C246.439 336.08 246.091 336.154 245.739 336.2C245.632 336.225 245.533 336.278 245.453 336.354C245.373 336.43 245.315 336.526 245.284 336.632C245.254 336.738 245.252 336.85 245.279 336.957C245.307 337.064 245.362 337.162 245.439 337.24C247.059 338.68 255.439 345.08 255.959 345.24C256.479 345.4 257.419 345.02 257.959 344.42C258.259 344.14 269.959 334.12 271.659 332.6C272.879 331.5 275.159 329.5 275.019 327.08L281.019 321.58C281.679 321.02 282.559 320.26 282.119 319.2C281.338 317.904 280.217 316.846 278.877 316.141C277.537 315.436 276.031 315.111 274.519 315.2C272.196 315.63 269.924 316.301 267.739 317.2C266.159 317.6 263.359 317.48 262.559 315.4C262.513 315.273 262.425 315.165 262.31 315.095C262.194 315.024 262.058 314.994 261.924 315.01C261.79 315.026 261.665 315.088 261.569 315.184C261.474 315.28 261.414 315.406 261.399 315.54C261.298 316.306 261.11 317.057 260.839 317.78C259.311 316.443 257.966 314.91 256.839 313.22C256.179 312.2 242.519 289.22 240.519 285.6C240.68 283.292 240.099 280.994 238.859 279.04C236.099 274.4 230.999 271.96 226.859 270.36C221.842 268.421 216.696 266.831 211.459 265.6C220.879 263.9 220.919 263.82 220.979 263.72C221.699 262.34 227.159 250.58 232.059 239.98C233.779 238.74 240.719 232.84 241.839 231.98C242.259 232.22 242.659 232.56 243.139 232.32L251.499 226.16C247.059 242.62 247.659 267.22 259.499 283.86C267.819 295.26 281.379 302.76 297.719 305.04C306.539 306.24 313.719 305.24 323.539 303.52C322.779 306.58 321.179 316.74 321.219 317.4C321.225 317.519 321.27 317.633 321.347 317.723C321.424 317.814 321.529 317.877 321.645 317.902C321.761 317.927 321.883 317.913 321.99 317.862C322.098 317.811 322.185 317.726 322.239 317.62C322.479 317.1 324.359 306.04 324.839 303.28C330.616 302.42 336.323 301.15 341.919 299.48C344.888 300.064 347.92 300.259 350.939 300.06C351.139 303.38 352.239 319.2 352.499 320.24C352.531 320.354 352.599 320.454 352.693 320.525C352.787 320.596 352.902 320.635 353.019 320.635C353.137 320.635 353.252 320.596 353.346 320.525C353.44 320.454 353.508 320.354 353.539 320.24C353.679 319.2 352.859 303.38 352.579 299.96C360.139 299.14 370.739 293.54 373.619 287.42C374.999 291.54 381.059 309.32 381.619 310.3C381.672 310.398 381.757 310.475 381.861 310.517C381.964 310.56 382.078 310.565 382.185 310.532C382.291 310.498 382.383 310.429 382.444 310.336C382.505 310.243 382.532 310.131 382.519 310.02C382.639 308.94 374.119 280.56 373.999 280.32ZM373.419 241.46C374.125 242.7 374.417 244.134 374.251 245.551C374.086 246.968 373.472 248.296 372.499 249.34C361.039 259.54 336.499 259.64 324.399 252.58C322.439 251.646 320.777 250.185 319.599 248.36C321.599 241.54 334.679 236.36 348.159 235.5C357.699 234.94 367.359 236.6 373.459 241.46H373.419ZM297.799 148.88C297.898 148.5 298.08 148.146 298.333 147.845C298.585 147.544 298.902 147.303 299.259 147.14C299.888 148.804 300.971 150.258 302.386 151.336C303.8 152.415 305.489 153.074 307.259 153.24C313.399 153.6 320.219 148.16 321.579 141.8C322.092 139.379 322.373 136.915 322.419 134.44C322.639 130.12 322.419 125.36 318.419 122.74C313.939 120.07 308.738 118.861 303.539 119.28C303.416 119.304 303.306 119.37 303.226 119.467C303.146 119.564 303.103 119.685 303.103 119.81C303.103 119.935 303.146 120.057 303.226 120.154C303.306 120.25 303.416 120.316 303.539 120.34H304.759C303.776 121.743 303.145 123.362 302.919 125.06C301.298 129.609 300.851 134.493 301.619 139.26C301.891 140.866 302.499 142.396 303.402 143.75C304.306 145.104 305.486 146.252 306.864 147.119C308.243 147.985 309.789 148.551 311.401 148.779C313.013 149.007 314.655 148.891 316.219 148.44C314.306 150.173 311.954 151.349 309.419 151.84C307.547 152.168 305.618 151.852 303.948 150.944C302.277 150.036 300.963 148.59 300.219 146.84L301.199 146.7L301.379 147.42C301.424 147.527 301.505 147.614 301.609 147.666C301.713 147.717 301.832 147.73 301.944 147.7C302.056 147.671 302.154 147.602 302.219 147.507C302.284 147.411 302.313 147.295 302.299 147.18C297.619 128.6 302.779 126.64 301.719 121.18C301.419 119.68 301.379 119.18 302.979 117.18C305.431 114.41 308.783 112.595 312.442 112.057C316.102 111.519 319.835 112.292 322.979 114.24C327.759 117.24 328.559 125.56 328.979 130C329.477 137.988 328.39 145.995 325.779 153.56C324.239 158.4 323.039 159.56 318.119 160.26C314.119 161.24 310.279 162.26 307.279 159.52C306.664 158.944 306.15 158.268 305.759 157.52C305.704 157.417 305.609 157.34 305.497 157.306C305.384 157.272 305.263 157.285 305.159 157.34C305.056 157.396 304.979 157.49 304.945 157.603C304.911 157.715 304.924 157.837 304.979 157.94C305.315 158.595 305.739 159.201 306.239 159.74C304.652 158.971 303.227 157.905 302.039 156.6C299.639 154.56 296.939 152 297.799 148.88ZM303.179 128.52C303.419 127.42 303.679 126.4 303.919 125.56C308.767 123.863 313.997 123.579 318.999 124.74C319.874 125.757 320.532 126.94 320.935 128.22C321.337 129.499 321.475 130.846 321.339 132.18C321.373 134.704 321.192 137.227 320.799 139.72C320.708 141.68 320.079 143.576 318.979 145.2C315.459 149.46 308.559 148.16 305.399 144.5C304.157 142.832 303.259 140.933 302.758 138.914C302.256 136.895 302.162 134.796 302.479 132.74C302.479 132.36 302.859 129.14 304.739 128.94C305.719 128.82 305.179 126.76 303.179 128.52ZM303.759 171.68C303.817 171.772 303.905 171.841 304.008 171.874C304.11 171.908 304.222 171.904 304.322 171.863C304.423 171.822 304.505 171.748 304.556 171.652C304.607 171.556 304.622 171.446 304.599 171.34C303.168 167.629 302.89 163.572 303.799 159.7C305.423 160.707 307.2 161.443 309.059 161.88C309.341 165.777 309.876 169.652 310.659 173.48C310.799 173.98 311.259 175 310.819 175.2C310.102 175.44 309.355 175.581 308.599 175.62C305.759 175.92 302.779 175.86 302.019 173.2C300.439 167.8 298.879 162.14 300.559 156.82C300.679 156.96 302.459 158.66 302.759 158.96C301.466 163.173 301.824 167.721 303.759 171.68ZM298.399 154.52C298.779 155 299.239 155.5 299.739 156.04C298.742 158.888 298.467 161.94 298.939 164.92C299.455 167.886 300.123 170.823 300.939 173.72C301.105 174.327 301.408 174.887 301.824 175.359C302.24 175.83 302.758 176.2 303.339 176.44C306.219 177.56 311.339 176.56 311.959 175.74C312.093 175.502 312.162 175.233 312.162 174.96C312.162 174.687 312.093 174.419 311.959 174.18C311.092 170.216 310.424 166.211 309.959 162.18C313.519 163.06 317.239 161.5 320.639 160.84C324.939 160.02 326.119 156.08 327.159 152.54C327.499 151.42 327.819 150.28 328.119 149.16C340.979 152.64 347.239 165.62 348.679 175.74C350.219 184.94 350.539 192.08 344.819 199.4C341.459 203.7 339.139 204.58 334.819 204.52C324.819 204.4 307.179 201.4 304.139 199.54C303.667 198.665 303.419 197.685 303.419 196.69C303.419 195.695 303.667 194.716 304.139 193.84C308.801 191.553 313.62 189.601 318.559 188C320.482 187.28 322.446 186.672 324.439 186.18C328.159 185.2 328.439 185.08 328.339 184.7C327.937 180.08 326.618 175.585 324.459 171.48C324.199 170.94 323.399 171.48 323.659 171.9C325.502 175.813 326.652 180.015 327.059 184.32C319.892 186.273 312.858 188.685 305.999 191.54C305.024 191.838 304.114 192.32 303.319 192.96C302.059 191.18 300.939 190.62 299.319 192.26L299.019 192.54L295.439 168.38C295.427 168.318 295.395 168.261 295.349 168.218C295.302 168.175 295.243 168.147 295.179 168.14L286.359 166.36C289.719 159.82 293.539 156 298.399 154.52ZM302.839 199.38C301.813 199.616 300.746 199.616 299.719 199.38C298.459 198.56 298.439 195.88 298.799 194.14C299.376 193.984 299.878 193.63 300.219 193.14C300.499 192.82 300.739 192.52 301.019 192.48C301.779 192.48 302.039 193.3 302.639 193.94C302.02 195.714 302.092 197.656 302.839 199.38ZM304.319 201.38C305.799 201.8 310.319 202.72 315.539 203.58C309.139 204.08 304.399 204.3 299.019 201.78L304.319 201.38ZM293.439 168.94L298.159 201.36C290.639 197.52 284.839 190.64 277.319 186.68C272.244 183.585 266.223 182.42 260.359 183.4C259.419 176.76 257.019 161.74 257.019 161.74C266.779 163.46 291.079 168.44 293.439 168.96V168.94ZM259.139 183.7C257.748 184.085 256.406 184.628 255.139 185.32C256.447 183.757 257.586 182.061 258.539 180.26L259.139 183.7ZM263.999 67.4802C265.351 66.1461 266.223 64.402 266.479 62.5202C267.108 63.0116 267.575 63.6799 267.821 64.439C268.067 65.1982 268.081 66.0135 267.859 66.7802C267.699 67.4202 268.639 67.8402 268.939 67.2002C269.028 67.0061 269.102 66.8055 269.159 66.6002C270.989 66.4405 272.83 66.4405 274.659 66.6002C276.279 66.7402 277.819 67.0602 278.159 68.4602C277.874 68.3255 277.571 68.2313 277.259 68.1802C274.912 67.97 272.556 67.8833 270.199 67.9202C270.096 67.9421 270.004 67.9987 269.937 68.0806C269.871 68.1625 269.835 68.2648 269.835 68.3702C269.835 68.4757 269.871 68.5779 269.937 68.6598C270.004 68.7417 270.096 68.7983 270.199 68.8202C272.269 68.7999 274.339 68.8867 276.399 69.0802C278.099 69.0802 278.539 69.8002 278.239 71.0802C277.398 70.5939 276.451 70.3194 275.479 70.2802H270.279C270.163 70.2802 270.051 70.3266 269.968 70.4091C269.886 70.4916 269.839 70.6035 269.839 70.7202C269.839 70.8369 269.886 70.9488 269.968 71.0313C270.051 71.1139 270.163 71.1602 270.279 71.1602C271.579 71.1602 275.879 71.3402 276.279 71.4402C278.499 71.9602 278.419 72.8802 277.899 73.2202C276.115 73.7052 274.266 73.9076 272.419 73.8202C270.719 73.8202 270.259 73.8202 270.139 74.1002C269.259 75.9202 267.759 75.6802 266.599 76.6402C265.604 77.6107 264.464 78.4204 263.219 79.0402C263.072 76.68 262.553 74.3579 261.679 72.1602C262.239 69.4402 262.399 68.9002 263.999 67.4802ZM258.759 70.3802C259.419 70.2202 259.659 70.5002 259.999 71.2402C261.687 74.8669 262.378 78.878 261.999 82.8602C261.999 83.7002 261.679 84.0002 260.759 84.2202C259.839 84.4402 256.759 85.7802 255.399 86.4002C254.956 81.7264 254.127 77.0972 252.919 72.5602C254.801 71.7366 256.724 71.009 258.679 70.3802H258.759ZM231.199 81.0602C231.204 81.1317 231.226 81.2011 231.262 81.2629C231.298 81.3246 231.349 81.377 231.409 81.4159C231.469 81.4547 231.538 81.479 231.609 81.4867C231.68 81.4944 231.752 81.4853 231.819 81.4602C236.839 79.8002 249.259 74.1402 251.819 73.0202C253.093 77.6031 253.969 82.287 254.439 87.0202C248.699 90.4002 244.019 95.1802 238.639 99.0202C236.237 98.4833 233.733 98.6148 231.399 99.4002C227.679 100.4 226.339 101.74 219.199 106.06C221.199 97.6002 223.659 82.3202 224.079 80.6202C224.1 80.5426 224.096 80.4607 224.069 80.385C224.043 80.3094 223.994 80.2436 223.929 80.1962C223.864 80.1487 223.787 80.1218 223.707 80.119C223.626 80.1161 223.547 80.1375 223.479 80.1802L213.659 79.7402L212.639 76.8202C212.599 76.7114 212.518 76.6221 212.414 76.5703C212.31 76.5184 212.19 76.5079 212.078 76.5409C211.967 76.5738 211.872 76.6478 211.813 76.7478C211.754 76.8479 211.735 76.9666 211.759 77.0802C211.879 77.5002 212.179 78.6602 212.439 79.7002L204.779 79.4002C209.646 75.6618 214.207 71.5422 218.419 67.0802C223.494 70.9008 227.802 75.6436 231.119 81.0602H231.199ZM199.199 120.8C200.854 122.563 201.844 124.847 201.999 127.26C201.155 126.893 200.277 126.605 199.379 126.4C199.379 126.04 199.259 125.76 199.219 125.58C199.229 125.527 199.229 125.473 199.219 125.42C195.465 122.142 191.452 119.172 187.219 116.54C193.808 116.642 200.387 115.97 206.819 114.54C204.366 116.394 201.886 118.314 199.379 120.3C199.328 120.313 199.281 120.338 199.243 120.373C199.204 120.409 199.174 120.453 199.156 120.502C199.138 120.552 199.133 120.605 199.141 120.657C199.148 120.709 199.168 120.758 199.199 120.8ZM199.499 127.6C200.352 127.873 201.182 128.214 201.979 128.62C201.656 130.291 201.167 131.926 200.519 133.5C199.639 133.5 198.759 133.36 197.879 133.34C198.569 131.472 199.111 129.553 199.499 127.6ZM203.159 129.22C205.988 129.488 208.756 130.204 211.359 131.34C212.557 131.826 213.619 132.594 214.455 133.58C215.291 134.566 215.876 135.739 216.159 137C216.659 139.12 215.039 141.68 212.879 140.5C203.939 134.62 203.319 133.98 201.779 133.64C202.561 132.287 203.032 130.777 203.159 129.22ZM208.859 113C201.019 114.36 193.039 116.08 185.079 115.36C182.591 113.931 180.049 112.597 177.459 111.36C176.179 106.26 170.999 84.5802 170.559 82.7802C172.379 84.6802 172.339 84.7802 172.559 84.7802C172.779 84.7802 194.559 83.1402 197.239 83.0402C203.119 82.8002 219.239 83.2802 220.879 83.3402C220.913 83.3595 220.951 83.3697 220.989 83.3697C221.028 83.3697 221.066 83.3595 221.099 83.3402C221.439 83.0202 222.299 82.2802 222.999 81.7002C222.079 85.7002 218.019 106.1 217.819 107.04C214.735 108.875 211.744 110.864 208.859 113ZM209.539 61.6202C206.779 63.8602 197.839 71.8002 195.999 73.7202C194.339 71.8602 186.119 64.1802 183.439 61.8802C186.779 60.7602 187.759 60.2602 187.799 60.2602C188.979 63.7802 195.279 69.1202 196.039 69.6002C196.799 70.0802 197.359 69.6002 197.899 68.9802C199.985 66.0337 201.792 62.9003 203.299 59.6202C205.519 59.7268 207.671 60.4166 209.539 61.6202ZM181.259 55.8802C180.596 55.7706 179.983 55.4546 179.509 54.9771C179.035 54.4996 178.724 53.8848 178.619 53.2202C178.553 52.1291 178.706 51.0357 179.07 50.005C179.435 48.9743 180.002 48.0273 180.739 47.2202C178.739 45.2202 181.099 43.4802 183.159 43.4202C183.039 41.2602 182.919 39.0802 182.819 36.9202C186.999 32.6602 197.059 29.0602 204.279 35.6002C204.279 37.4202 204.499 39.2402 204.619 41.0602C206.619 41.6402 208.019 42.8802 208.059 44.1802C208.049 44.6098 207.949 45.0326 207.767 45.4216C207.584 45.8107 207.323 46.1576 206.999 46.4402C208.166 47.0166 209.13 47.9328 209.766 49.0681C210.401 50.2034 210.678 51.5046 210.559 52.8002C210.433 53.4649 210.059 54.057 209.514 54.4577C208.968 54.8583 208.292 55.0379 207.619 54.9602C205.399 54.1402 204.859 51.4202 204.619 48.3402C204.493 48.4376 204.351 48.512 204.199 48.5602C204.192 50.1402 203.757 51.6888 202.94 53.0411C202.123 54.3935 200.955 55.499 199.559 56.2402C199.559 57.3002 199.739 58.3602 199.839 59.4202C200.579 59.4202 201.419 59.4202 202.279 59.5802C200.547 62.6818 198.595 65.656 196.439 68.4802C195.499 67.8202 189.739 62.8402 188.739 60.1602L189.659 60.0402V56.9802C188.437 56.3928 187.338 55.5783 186.419 54.5802C185.774 53.9748 185.245 53.2563 184.859 52.4602C184.439 54.1202 183.259 56.0002 181.259 55.8802ZM182.199 62.3402C183.719 63.7802 194.699 74.0802 195.779 74.9202C196.179 75.2002 196.159 75.0802 200.579 71.0402C204.059 67.8602 208.799 63.5202 210.579 62.1202C213.013 63.3567 215.347 64.781 217.559 66.3802C215.559 69.1402 206.179 76.6802 202.999 79.2802C198.803 79.0514 194.596 79.1718 190.419 79.6402C184.93 75.0918 179.202 70.8391 173.259 66.9002C176.07 65.0685 179.067 63.54 182.199 62.3402ZM172.319 67.4802C177.879 71.3602 183.219 75.6202 188.639 79.7602L175.419 80.8002C175.052 79.5006 174.903 78.1487 174.979 76.8002C174.979 76.6835 174.933 76.5716 174.851 76.4891C174.768 76.4066 174.656 76.3602 174.539 76.3602C174.423 76.3602 174.311 76.4066 174.228 76.4891C174.146 76.5716 174.099 76.6835 174.099 76.8002C173.849 78.2087 173.903 79.6546 174.259 81.0402C168.839 81.4602 169.619 81.3802 169.499 81.4202C169.447 81.4294 169.397 81.4495 169.352 81.4793C169.308 81.5091 169.271 81.5479 169.242 81.5932C169.214 81.6385 169.195 81.6892 169.188 81.7421C169.181 81.7951 169.185 81.8489 169.199 81.9002C169.579 83.4002 174.959 105.9 176.179 110.78C170.179 107.84 162.819 104.42 157.699 103.5C153.539 89.3202 161.299 74.5602 172.319 67.4802ZM144.739 120.26C149.979 131.7 162.739 134.98 175.199 136.44C170.044 138.019 165.065 140.124 160.339 142.72C158.775 143.442 157.353 144.438 156.139 145.66C156.06 145.748 156.018 145.863 156.024 145.981C156.03 146.1 156.082 146.211 156.169 146.29C156.257 146.37 156.372 146.411 156.491 146.406C156.609 146.4 156.72 146.348 156.799 146.26C157.913 145.24 159.2 144.427 160.599 143.86C173.107 137.325 187.096 134.149 201.199 134.64C202.779 134.64 203.559 135.76 211.899 141.16C212.559 141.679 213.381 141.948 214.219 141.92C218.219 141.18 217.739 136.16 215.539 133.06L216.719 132.76C225.898 133.526 234.918 135.615 243.499 138.96C243.601 138.986 243.708 138.974 243.802 138.927C243.896 138.881 243.97 138.802 244.011 138.706C244.052 138.609 244.057 138.501 244.026 138.401C243.994 138.301 243.928 138.216 243.839 138.16C236.285 134.867 228.285 132.71 220.099 131.76C223.659 130.6 231.099 131 234.839 131.36C234.961 131.36 235.078 131.312 235.165 131.225C235.251 131.139 235.299 131.022 235.299 130.9C235.299 130.778 235.251 130.661 235.165 130.575C235.078 130.489 234.961 130.44 234.839 130.44C231.619 129.994 228.37 129.793 225.119 129.84C229.103 128.128 232.886 125.982 236.399 123.44C241.199 120 243.999 118 245.579 114.62C262.559 124.84 267.999 146 265.859 162.26C261.019 161.3 257.299 160.58 256.459 160.44C256.347 160.418 256.231 160.429 256.125 160.471C256.018 160.512 255.926 160.584 255.859 160.676C255.792 160.769 255.752 160.878 255.745 160.992C255.738 161.107 255.764 161.22 255.819 161.32C255.819 161.32 257.559 173.32 258.319 178.32C256.386 182.091 253.784 185.479 250.639 188.32C246.219 191.983 241.999 195.882 237.999 200C225.544 206.235 211.743 209.299 197.819 208.92C197.699 207.48 197.539 206.04 197.339 204.62C197.339 202.82 194.139 202.32 193.159 202.22C190.228 201.871 187.265 202.512 184.739 204.04C183.999 204.48 181.639 206.04 182.079 207.52C182.079 207.84 182.079 208.14 182.219 208.46C172.939 208.62 164.219 204.96 155.539 201.8C145.299 198 138.739 193.66 132.999 186C129.924 182.216 128.001 177.627 127.459 172.78C131.999 169.06 132.959 161.58 127.459 155.16C127.659 144.14 135.339 127.52 144.739 120.26ZM161.259 256.94C163.352 257.529 165.273 258.613 166.859 260.1C167.719 261.24 167.279 262.1 164.079 260.1C162.882 259.274 161.585 258.602 160.219 258.1C160.134 258.073 160.041 258.079 159.96 258.116C159.878 258.153 159.814 258.22 159.779 258.303C159.743 258.385 159.741 258.478 159.77 258.563C159.8 258.647 159.86 258.718 159.939 258.76C161.599 259.6 163.099 260.54 164.819 261.56C163.019 263.1 161.399 259.66 158.399 260.32C158.449 259.975 158.449 259.625 158.399 259.28C158.279 258.78 157.459 258.84 157.519 259.4C157.719 261.58 155.519 262.88 153.519 263.94L146.679 267.94C146.079 264.68 145.679 261.04 147.559 258.1C149.299 257.565 150.897 256.649 152.239 255.42C155.999 252.46 157.259 251.94 162.239 254.66C163.919 255.64 166.039 256.44 166.239 258.38C164.712 257.382 163.039 256.626 161.279 256.14C161.194 256.165 161.119 256.217 161.064 256.287C161.01 256.358 160.979 256.444 160.977 256.533C160.975 256.622 161.001 256.709 161.052 256.783C161.103 256.856 161.175 256.911 161.259 256.94ZM167.999 260C170.867 260.334 173.754 260.468 176.639 260.4L173.419 267.6L156.839 263.08C157.241 262.705 157.603 262.29 157.919 261.84C158.999 260.66 160.759 261.64 162.059 262.34C162.708 262.806 163.505 263.02 164.299 262.94C164.902 262.83 165.447 262.511 165.839 262.04C167.539 262.7 168.559 261.42 167.999 260ZM151.499 270.48C150.759 271.14 150.079 271.84 149.499 272.48C148.419 272.16 147.639 271.02 147.139 269L151.379 266.52C151.708 267.825 151.721 269.189 151.419 270.5L151.499 270.48ZM146.419 270.86C146.403 271.879 146.128 272.877 145.619 273.76C145.179 274.48 144.479 275.32 143.619 275.2C142.759 275.08 142.019 273.86 141.619 272.22L145.999 269.68C146.086 270.087 146.2 270.488 146.339 270.88L146.419 270.86ZM145.779 268.54L141.439 271.1C141.106 268.497 141.187 265.858 141.679 263.28C141.799 261.551 142.504 259.914 143.679 258.64C144.57 258.633 145.459 258.559 146.339 258.42C145.007 261.636 144.781 265.203 145.699 268.56L145.779 268.54ZM140.299 271.78C132.899 276.14 124.519 281.02 115.179 280.4C105.839 279.78 96.3594 274.04 87.5394 263.52C95.8902 259.21 103.836 254.156 111.279 248.42C113.641 250.417 115.667 252.781 117.279 255.42C120.599 262.1 119.279 258.26 142.159 258.64C141.377 259.669 140.85 260.868 140.619 262.14C139.891 265.308 139.756 268.583 140.219 271.8L140.299 271.78ZM95.5394 273.18C91.4001 276.852 88.8654 282 88.4794 287.52C84.5035 284.592 81.1514 280.9 78.6194 276.66C79.2067 274.231 80.3112 271.956 81.8575 269.992C83.4037 268.028 85.3554 266.421 87.5794 265.28C89.9607 268.153 92.5983 270.804 95.4594 273.2L95.5394 273.18ZM139.799 257.58C134.759 257.46 124.219 258.16 123.179 258.26C122.125 258.583 120.987 258.489 119.999 258C126.08 257.083 131.786 254.493 136.479 250.52C137.019 250.06 136.299 249.3 135.759 249.72C132.162 252.656 127.984 254.796 123.499 256C122.439 256.3 120.199 256.76 119.219 256.94C117.424 253.475 114.94 250.412 111.919 247.94L113.359 246.78C115.494 246.229 117.597 245.561 119.659 244.78C119.854 244.912 120.074 245.001 120.306 245.041C120.537 245.082 120.775 245.074 121.003 245.018C121.231 244.961 121.444 244.857 121.63 244.713C121.815 244.569 121.968 244.387 122.079 244.18C122.648 244.664 123.081 245.287 123.336 245.988C123.592 246.689 123.662 247.444 123.539 248.18C123.339 249.26 122.979 249.8 122.479 249.82C121.798 249.753 121.126 249.605 120.479 249.38C120.344 249.351 120.203 249.377 120.087 249.452C119.97 249.527 119.889 249.645 119.859 249.78C119.83 249.915 119.856 250.057 119.931 250.173C120.006 250.289 120.124 250.371 120.259 250.4C121.452 251.359 122.93 251.893 124.459 251.92C129.839 251.92 131.379 244.28 127.519 240.28C129.246 238.76 130.613 236.875 131.519 234.76C131.779 234.2 130.939 233.78 130.679 234.32C129.586 236.251 128.173 237.983 126.499 239.44C125.475 238.735 124.263 238.352 123.019 238.34C122.859 238.163 122.652 238.035 122.422 237.972C122.191 237.908 121.948 237.911 121.719 237.98C120.619 234.24 122.839 231.12 119.339 225.78C123.417 223.553 126.593 219.974 128.319 215.66C128.559 215.02 127.579 214.68 127.319 215.32C125.503 219.315 122.463 222.628 118.639 224.78C117.219 222.999 115.533 221.447 113.639 220.18L113.339 219.06C115.372 218.126 117.086 216.617 118.27 214.718C119.454 212.82 120.055 210.617 119.999 208.38C119.94 207.402 119.758 206.434 119.459 205.5C123.319 205.22 126.079 208.78 128.499 212.68C136.179 225.1 136.239 237.04 140.699 249.68C141.554 252.768 143.42 255.48 145.999 257.38C143.917 257.639 141.815 257.713 139.719 257.6L139.799 257.58ZM118.879 244C117.559 244.44 116.199 244.76 114.879 245.14C114.879 244.84 111.759 239.76 111.579 239.5C113.803 241.087 116.223 242.378 118.779 243.34C118.757 243.565 118.791 243.792 118.879 244ZM123.779 239.42C125.13 239.681 126.354 240.385 127.259 241.42C130.199 244.92 128.699 251.18 124.319 250.92C124.752 250.783 125.152 250.56 125.495 250.265C125.839 249.969 126.119 249.607 126.319 249.2C126.36 249.126 126.371 249.04 126.351 248.957C126.331 248.875 126.282 248.804 126.212 248.756C126.142 248.709 126.057 248.689 125.973 248.701C125.89 248.713 125.813 248.755 125.759 248.82C125.249 249.449 124.546 249.892 123.759 250.08C124.079 249.601 124.303 249.064 124.419 248.5C124.634 247.543 124.579 246.545 124.261 245.616C123.943 244.688 123.375 243.866 122.619 243.24C123.123 242.597 123.527 241.883 123.819 241.12C124.024 240.556 124.01 239.935 123.779 239.38V239.42ZM122.159 242.32C121.783 242.955 121.303 243.523 120.739 244C120.575 244.011 120.41 243.985 120.258 243.922C120.105 243.86 119.969 243.763 119.859 243.64C119.81 243.596 119.772 243.539 119.751 243.476C119.73 243.413 119.726 243.345 119.739 243.28C120.612 242.132 121.319 240.866 121.839 239.52C121.872 239.311 121.955 239.112 122.079 238.94C122.119 238.93 122.16 238.93 122.199 238.94C122.534 239.239 122.789 239.617 122.939 240.04C123.199 240.84 122.679 241.56 122.159 242.28V242.32ZM103.399 197.44C102.619 196.04 100.779 192.64 100.779 192.64C102.84 190.448 104.174 187.674 104.6 184.696C105.026 181.719 104.523 178.682 103.159 176C112.599 173.48 116.559 164.26 118.179 158C118.542 160.476 119.313 162.876 120.459 165.1C122.016 167.816 124.213 170.109 126.859 171.78C126.57 172.012 126.263 172.219 125.939 172.4C125.819 172.461 125.726 172.564 125.678 172.69C125.629 172.816 125.63 172.955 125.679 173.08C125.879 176.58 126.079 188.08 120.999 193.24C120.151 194.13 119.115 194.818 117.966 195.254C116.816 195.69 115.584 195.863 114.359 195.76C114.244 195.745 114.127 195.775 114.032 195.843C113.938 195.911 113.872 196.012 113.849 196.126C113.826 196.24 113.848 196.359 113.909 196.458C113.97 196.557 114.067 196.63 114.179 196.66C114.625 196.699 115.074 196.699 115.519 196.66C116.459 199.82 118.339 204.66 118.959 207.14C120.059 211.76 116.759 216.18 112.959 217.9C111.49 213.33 108.75 209.272 105.059 206.2C105.382 204.703 105.401 203.157 105.116 201.652C104.831 200.148 104.247 198.715 103.399 197.44ZM146.319 221.78C141.319 215.38 131.019 204.16 117.819 200.44C117.439 199.28 117.019 198.06 116.539 196.72C121.599 196.02 124.539 190.88 125.579 186.6C126.492 183.216 126.956 179.726 126.959 176.22C129.179 185.64 137.739 194.22 146.039 199.04C148.254 200.157 150.531 201.145 152.859 202C162.459 205.54 172.039 210 182.319 209.54C182.319 210.26 182.539 210.98 182.699 211.7C182.248 211.709 181.804 211.818 181.399 212.02C179.296 213.42 177.682 215.44 176.779 217.8C168.499 217.8 160.779 221.24 153.219 224.84C150.979 225.92 148.059 226.84 146.939 224.62C147.759 223.44 146.759 222.28 146.319 221.78ZM145.599 224.4C144.399 225.7 138.939 231.38 137.439 233C136.279 228.08 129.859 203.44 119.219 204.56C119.219 204.3 118.359 202.02 118.199 201.58C127.619 204.56 137.039 212.06 145.379 222.42C146.099 223.3 146.379 223.68 145.599 224.4ZM137.779 234.4C140.659 231.52 143.379 228.4 146.199 225.46C146.684 226.122 147.36 226.619 148.136 226.884C148.913 227.149 149.752 227.168 150.539 226.94C154.899 225.92 167.359 218.24 179.299 218.7C179.398 218.679 179.486 218.625 179.549 218.546C179.612 218.468 179.646 218.371 179.646 218.27C179.646 218.17 179.612 218.072 179.549 217.994C179.486 217.916 179.398 217.862 179.299 217.84H177.979C178.899 216.14 180.819 212.86 182.739 212.76C184.294 212.961 185.719 213.731 186.739 214.92C186.739 214.92 186.399 215.08 186.219 215.1L183.739 215.74C183.61 215.775 183.498 215.857 183.425 215.97C183.353 216.083 183.325 216.22 183.347 216.352C183.37 216.485 183.441 216.604 183.547 216.687C183.652 216.77 183.785 216.81 183.919 216.8C184.039 217.34 185.079 222.02 185.099 222.14C173.999 226.66 163.659 244 146.999 248C145.231 248.575 143.335 248.623 141.539 248.14C139.999 243.74 138.979 239.14 137.779 234.42V234.4ZM194.839 203.64C196.479 204.18 196.839 204.8 194.459 206.2L194.019 206.48C190.619 208.68 183.239 208.48 183.079 207.14C182.919 205.8 188.939 201.76 194.839 203.66V203.64ZM184.839 216.56C186.019 216.3 187.699 216.08 187.879 215.18C188.119 213.94 184.959 212.16 183.719 211.84C183.719 210.78 183.439 209.72 183.259 208.68C185.474 209.286 187.797 209.379 190.053 208.952C192.309 208.526 194.438 207.592 196.279 206.22C196.759 210.92 197.099 215.7 197.439 220.5C197.514 221.11 197.435 221.729 197.212 222.301C196.989 222.874 196.627 223.382 196.159 223.78C194.977 224.513 193.655 224.991 192.278 225.184C190.9 225.377 189.497 225.28 188.159 224.9C186.639 224.66 186.339 223.14 186.039 221.68L184.839 216.56ZM56.6994 92.0002C56.3431 91.1453 56.2076 90.2146 56.3053 89.2936C56.4031 88.3726 56.7311 87.491 57.259 86.73C57.7869 85.9691 58.4978 85.3531 59.3262 84.939C60.1546 84.5249 61.0739 84.3258 61.9994 84.3602C64.1788 84.4684 66.2366 85.3973 67.7594 86.9602C67.8604 87.0354 67.9846 87.073 68.1104 87.0664C68.2361 87.0597 68.3556 87.0093 68.4482 86.9239C68.5407 86.8385 68.6005 86.7234 68.6172 86.5985C68.6338 86.4737 68.6063 86.3469 68.5394 86.2402C68.5394 86.2402 62.2994 76.3402 61.7994 69.0402C61.4394 65.3202 61.4594 56.5602 69.1794 55.6002C70.6798 55.4955 72.1786 55.8268 73.495 56.5542C74.8115 57.2816 75.8896 58.3742 76.5994 59.7002C76.6737 59.854 76.806 59.9721 76.9673 60.0283C77.1285 60.0846 77.3056 60.0745 77.4594 60.0002C77.6132 59.926 77.7313 59.7936 77.7875 59.6323C77.8438 59.4711 77.8337 59.294 77.7594 59.1402V57.1402C77.4994 50.5202 76.8594 32.9002 83.6194 28.4602C85.4576 27.0555 87.726 26.3316 90.0381 26.4118C92.3502 26.492 94.563 27.3714 96.2994 28.9002C103.779 35.5602 103.959 49.6402 100.459 59.9002C100.219 60.3802 101.139 60.9402 101.439 60.4602C103.919 56.7402 108.859 53.1402 113.439 53.8402C118.019 54.5402 117.779 61.8402 117.739 66.5002C117.704 69.6446 117.143 72.7609 116.079 75.7202C116.025 75.8534 116.022 76.0019 116.072 76.1369C116.121 76.272 116.218 76.384 116.345 76.4513C116.472 76.5185 116.62 76.5362 116.759 76.5009C116.898 76.4656 117.02 76.3798 117.099 76.2602C119.479 74.5002 121.859 72.7002 124.799 73.2002C128.399 73.8202 128.799 78.3402 128.799 79.7402C129.059 86.8202 124.379 93.0602 118.559 102.52C104.999 102.52 71.4794 106.18 69.9194 106.36C63.6794 104.74 58.7394 99.3802 56.6994 92.0002ZM64.8194 121C63.5194 121 63.3994 120.82 63.1394 120.18C62.3452 116.278 61.7908 112.33 61.4794 108.36C82.2594 105.66 102.099 104.36 122.419 103.54C122.259 105.54 121.479 115.54 121.379 116.04C121.279 116.54 121.239 116.3 120.979 116.34C119.999 116.38 65.2194 120.98 64.8194 121ZM76.2994 159.64C75.7394 157.64 66.6194 123.48 66.2994 121.88C70.8994 121.54 111.539 118.5 117.819 117.88C117.819 117.88 114.339 143.58 113.939 147.1C101.279 145.26 86.5594 153.46 81.7394 164.2C80.439 164.209 79.1779 163.755 78.1813 162.92C77.1847 162.085 76.5177 160.922 76.2994 159.64ZM92.4794 154C103.019 146.94 117.799 144.96 127.079 156.48C130.419 160.48 131.539 167.08 127.639 171.22C121.079 166.82 119.399 161.88 118.459 153.82C118.459 153.2 117.459 153.38 117.539 153.98C117.539 153.98 117.699 155.14 117.779 155.62C116.886 159.067 115.653 162.417 114.099 165.62C112.862 167.952 111.158 170.003 109.094 171.648C107.029 173.293 104.648 174.495 102.099 175.18C102.036 175.211 101.98 175.255 101.935 175.31C101.89 175.364 101.857 175.427 101.838 175.495C101.819 175.563 101.815 175.635 101.825 175.704C101.836 175.774 101.861 175.841 101.899 175.9C103.636 178.965 104.137 182.578 103.299 186C102.924 187.604 102.223 189.114 101.239 190.436C100.255 191.757 99.009 192.861 97.5794 193.68C97.4785 193.758 97.4083 193.869 97.3815 193.994C97.3546 194.119 97.3727 194.249 97.4326 194.361C97.4925 194.474 97.5903 194.562 97.7087 194.609C97.827 194.656 97.9584 194.66 98.0794 194.62C98.7322 194.308 99.3491 193.926 99.9194 193.48C100.359 194.32 100.839 195.14 101.299 195.96C105.019 202.44 104.879 203.64 103.859 207.44C103.383 208.849 103.173 210.334 103.239 211.82C103.261 211.918 103.315 212.006 103.393 212.069C103.471 212.133 103.569 212.167 103.669 212.167C103.77 212.167 103.867 212.133 103.946 212.069C104.024 212.006 104.078 211.918 104.099 211.82C104.065 210.361 104.309 208.908 104.819 207.54C107.596 210.071 109.804 213.163 111.297 216.61C112.79 220.058 113.534 223.783 113.479 227.54C113.477 227.587 113.483 227.633 113.499 227.676C113.515 227.72 113.54 227.76 113.572 227.794C113.603 227.827 113.642 227.854 113.685 227.873C113.727 227.891 113.773 227.9 113.819 227.9C113.914 227.906 114.007 227.877 114.081 227.818C114.155 227.759 114.205 227.674 114.219 227.58C114.392 225.63 114.298 223.665 113.939 221.74C116.879 223.98 121.019 228.24 120.419 233.88C120.232 235.601 120.423 237.341 120.979 238.98C120.583 240.23 119.959 241.396 119.139 242.42C112.239 239.02 108.319 237.58 108.999 229.44C109.59 229.708 110.159 230.022 110.699 230.38C110.79 230.427 110.894 230.44 110.992 230.416C111.091 230.392 111.178 230.333 111.236 230.25C111.295 230.167 111.321 230.065 111.311 229.964C111.3 229.863 111.254 229.769 111.179 229.7C108.379 227.48 104.859 227.02 101.939 225.18C99.9258 223.909 98.2807 222.132 97.1683 220.026C96.0558 217.921 95.5149 215.56 95.5994 213.18C96.1566 213.259 96.7222 213.259 97.2794 213.18C97.3372 213.172 97.3929 213.153 97.4432 213.124C97.4936 213.094 97.5377 213.055 97.573 213.009C97.6082 212.962 97.634 212.91 97.6489 212.853C97.6637 212.797 97.6673 212.738 97.6594 212.68C97.6515 212.622 97.6323 212.567 97.603 212.516C97.5736 212.466 97.5345 212.422 97.4881 212.387C97.4417 212.351 97.3887 212.326 97.3324 212.311C97.276 212.296 97.2172 212.292 97.1594 212.3C96.011 212.329 94.87 212.109 93.8139 211.657C92.7579 211.205 91.8116 210.531 91.0394 209.68C89.5572 207.828 87.9819 206.052 86.3194 204.36C84.937 202.723 84.2544 200.607 84.4191 198.47C84.5837 196.333 85.5824 194.347 87.1994 192.94C87.2297 192.912 87.2539 192.878 87.2704 192.84C87.2869 192.802 87.2954 192.762 87.2954 192.72C87.2954 192.679 87.2869 192.638 87.2704 192.6C87.2539 192.562 87.2297 192.528 87.1994 192.5C82.9994 188.92 81.3994 179.96 81.1994 175.44C80.5794 166 84.2194 159.38 92.4794 154ZM108.299 234.56C106.419 231.78 104.519 229.2 102.559 226.76C104.334 227.581 106.149 228.309 107.999 228.94C107.756 230.783 107.858 232.655 108.299 234.46V234.56ZM86.6394 205.96C88.6394 208.1 90.6394 211.96 94.6394 213C94.5229 214.251 94.5971 215.512 94.8594 216.74C92.7185 214.874 90.0883 213.66 87.2794 213.24C86.6594 213.24 86.5394 214.04 87.0994 214.12C90.4041 214.856 93.3802 216.646 95.5794 219.22C96.5089 221.31 97.8724 223.178 99.5794 224.7C99.5645 224.863 99.607 225.026 99.6994 225.16C104.836 231.445 109.458 238.133 113.519 245.16C104.056 252.811 93.717 259.31 82.7194 264.52C76.2594 256.96 69.6194 248.06 71.9194 237.98C71.9314 237.861 71.9 237.741 71.8309 237.643C71.7619 237.544 71.6597 237.474 71.5432 237.445C71.4267 237.416 71.3035 237.43 71.1963 237.484C71.0891 237.538 71.005 237.629 70.9594 237.74C68.3594 248.44 75.3194 257.74 82.0394 265.74C82.1413 265.851 82.2771 265.925 82.4255 265.95C82.5739 265.976 82.7265 265.951 82.8594 265.88L86.4994 264.04C86.5816 264.162 86.6754 264.276 86.7794 264.38C84.6088 265.478 82.6833 267.005 81.1193 268.868C79.5552 270.731 78.385 272.892 77.6794 275.22C65.9994 256.22 61.4194 222.66 86.6394 205.86V205.96ZM135.239 374.68C135.559 377.2 134.399 383.68 132.319 384.88C131.475 385.289 130.57 385.559 129.639 385.68C127.779 386.02 122.739 387.26 116.919 387.92C96.9194 389.66 86.4594 389.16 78.2394 385.46C76.6202 384.77 75.1727 383.732 73.9994 382.42C71.8194 380.02 69.5794 375.7 72.4794 374.04C73.4826 373.557 74.6279 373.457 75.6994 373.76C79.2381 374.804 82.8571 375.553 86.5194 376C95.0994 376.54 96.2194 376.82 104.819 376.92C114.819 377.04 123.679 377.16 133.079 374.46C133.859 374.16 135.079 373.8 135.239 374.58V374.68ZM135.479 371.34C131.574 373.631 127.18 374.961 122.659 375.22C117.129 375.751 111.575 375.998 106.019 375.96C97.6161 376.106 89.2181 375.45 80.9394 374C75.8618 373.044 71.128 370.76 67.2194 367.38C63.4594 364.22 61.7194 360.2 66.1194 358.02C68.7394 356.74 72.3594 357.48 75.1994 358.32C75.2645 358.334 75.3325 358.326 75.3927 358.298C75.4528 358.269 75.5016 358.221 75.5314 358.161C75.5612 358.102 75.5703 358.034 75.5573 357.968C75.5442 357.903 75.5098 357.844 75.4594 357.8C74.9794 357.38 63.3194 347.64 65.7794 337.98C66.7194 334.34 68.4994 331.98 70.8394 331.36C73.7994 330.56 77.5194 332.56 79.8194 336.22C79.8528 336.278 79.9046 336.324 79.9667 336.349C80.0288 336.374 80.0976 336.378 80.162 336.359C80.2264 336.341 80.2829 336.301 80.3223 336.247C80.3617 336.193 80.3818 336.127 80.3794 336.06C80.5994 328.5 85.0394 324.46 87.5394 324.62C90.0394 324.78 93.4394 329.34 93.1594 336.04C93.1594 336.12 93.191 336.196 93.2473 336.252C93.3035 336.309 93.3798 336.34 93.4594 336.34C93.539 336.34 93.6153 336.309 93.6715 336.252C93.7278 336.196 93.7594 336.12 93.7594 336.04C93.8994 333.22 94.9394 319 100.599 313.72C103.859 310.68 107.459 310.74 110.799 313.92C116.979 319.8 115.299 338.7 115.219 339.52C115.216 339.582 115.232 339.643 115.264 339.696C115.297 339.748 115.345 339.789 115.402 339.813C115.459 339.837 115.522 339.843 115.582 339.83C115.643 339.817 115.698 339.786 115.739 339.74C119.619 335.74 124.459 335.64 126.199 337.26C127.939 338.88 128.199 344.58 123.539 348.74C123.492 348.791 123.463 348.856 123.458 348.925C123.454 348.994 123.473 349.063 123.513 349.119C123.553 349.176 123.611 349.217 123.678 349.235C123.745 349.254 123.816 349.248 123.879 349.22C125.392 348.3 127.188 347.961 128.932 348.267C130.676 348.572 132.249 349.501 133.359 350.88C135.359 353.86 134.019 359.22 129.359 361.24C129.299 361.274 129.252 361.328 129.227 361.392C129.201 361.457 129.199 361.528 129.22 361.594C129.241 361.66 129.285 361.716 129.343 361.754C129.401 361.792 129.471 361.808 129.539 361.8C133.119 361.02 137.279 361.28 139.139 363.38C141.879 366.54 138.899 369 135.479 371.24V371.34ZM215.479 313.78C211.222 308.986 205.919 305.236 199.979 302.82C199.556 299.842 199.835 296.807 200.794 293.956C201.752 291.105 203.364 288.518 205.499 286.4C208.818 283.258 212.994 281.17 217.499 280.4C220.256 282.31 222.699 284.638 224.739 287.3C230.539 294.58 236.459 302.48 243.339 312.1C238.132 314.729 234.12 319.241 232.119 324.72C228.639 322.42 220.899 317.28 215.439 313.68L215.479 313.78ZM232.979 325.44C234.951 320.112 238.818 315.697 243.839 313.04L245.179 314.92C242.725 316.039 240.533 317.663 238.748 319.686C236.963 321.709 235.625 324.085 234.819 326.66L232.979 325.44ZM235.699 327.26C236.48 324.753 237.771 322.435 239.492 320.453C241.214 318.47 243.327 316.865 245.699 315.74C247.119 317.74 251.459 324.38 252.779 326.08C254.099 330.24 250.959 334.2 248.099 335.54C246.979 334.52 247.799 335.28 235.659 327.16L235.699 327.26ZM272.139 330.76C267.299 335.44 261.879 339.62 256.859 344.04C256.199 344.54 255.379 343.44 254.699 343.08C252.079 341.26 249.579 339.08 247.179 337.08C249.35 336.52 251.252 335.208 252.545 333.376C253.838 331.545 254.438 329.313 254.239 327.08C254.012 325.995 253.891 324.889 253.879 323.78C256.419 327.78 256.479 328.84 258.219 328.32C258.009 329.481 258.12 330.678 258.539 331.78C258.589 331.868 258.668 331.935 258.761 331.972C258.855 332.008 258.958 332.012 259.054 331.981C259.15 331.951 259.233 331.888 259.288 331.805C259.344 331.721 259.369 331.62 259.359 331.52C258.969 330.328 259.055 329.031 259.599 327.9L260.859 327.56C260.685 328.257 260.65 328.982 260.757 329.692C260.863 330.402 261.109 331.085 261.479 331.7C261.542 331.782 261.631 331.837 261.732 331.857C261.832 331.877 261.936 331.86 262.025 331.808C262.113 331.757 262.18 331.674 262.212 331.577C262.244 331.48 262.24 331.374 262.199 331.28C261.919 330.78 261.739 329.64 262.439 327.14L264.199 326.78C263.823 328.243 263.823 329.777 264.199 331.24C264.24 331.349 264.321 331.438 264.425 331.49C264.529 331.542 264.649 331.552 264.76 331.52C264.872 331.487 264.967 331.413 265.026 331.313C265.085 331.213 265.104 331.094 265.079 330.98C264.825 329.497 264.963 327.973 265.479 326.56C267.402 326.288 269.338 326.128 271.279 326.08C272.319 326.08 273.759 326.26 273.899 327.3C274.039 328.34 272.799 330 272.099 330.66L272.139 330.76ZM262.459 317.34C263.275 317.918 264.18 318.358 265.139 318.64C264.77 320.156 264.911 321.752 265.539 323.18C265.759 323.7 266.579 323.4 266.359 322.88C265.873 321.55 265.873 320.091 266.359 318.76C266.695 318.756 267.03 318.722 267.359 318.66C267.189 320.107 267.417 321.573 268.019 322.9C268.068 322.996 268.151 323.07 268.251 323.109C268.35 323.148 268.461 323.149 268.562 323.112C268.662 323.075 268.746 323.003 268.797 322.909C268.848 322.814 268.863 322.705 268.839 322.6C268.388 321.209 268.388 319.711 268.839 318.32C269.399 318.14 269.939 317.92 270.479 317.72C270.233 319.305 270.463 320.926 271.139 322.38C271.359 322.9 272.199 322.62 271.979 322.06C271.351 320.48 271.351 318.72 271.979 317.14C273.52 316.418 275.26 316.239 276.916 316.631C278.572 317.023 280.046 317.964 281.099 319.3C281.479 319.8 281.519 319.98 280.959 320.46L274.959 326.14C273.599 324.38 269.359 325.06 267.259 325.38C265.559 325.66 260.919 326.54 259.259 326.98C258.679 327.14 257.899 327.56 257.539 327.2C257.179 326.84 257.039 326.44 256.359 325.2C257.861 324.359 259.174 323.219 260.216 321.85C261.259 320.48 262.009 318.911 262.419 317.24L262.459 317.34ZM260.619 318.98C259.498 321.206 257.735 323.045 255.559 324.26L254.199 322.06C254.062 321.919 253.876 321.833 253.679 321.82C252.979 321.82 252.739 323.08 252.659 323.82C251.919 322.68 248.839 318.16 248.659 317.82C250.069 315.167 251.969 312.805 254.259 310.86C255.907 313.865 258.043 316.575 260.579 318.88L260.619 318.98ZM253.659 309.96C251.359 311.955 249.435 314.346 247.979 317.02L246.939 315.52C248.253 312.715 250.222 310.266 252.679 308.38L253.659 309.96ZM252.139 307.52C249.614 309.321 247.59 311.738 246.259 314.54C240.459 306.36 233.559 296.76 225.999 287.24C223.935 284.515 221.513 282.08 218.799 280C220.119 279.78 221.179 279.64 222.359 279.52C226.919 279.02 231.639 278.56 235.619 280.94C237.347 282.231 238.757 283.9 239.739 285.82C239.799 286.2 246.239 298 252.099 307.42L252.139 307.52ZM224.799 270.94C233.719 273.82 238.659 278 239.539 283.42C238.646 282.044 237.471 280.873 236.092 279.983C234.713 279.094 233.162 278.507 231.539 278.26C226.861 277.797 222.14 278.053 217.539 279.02C205.259 281.14 197.339 290.82 198.539 302.18C192.751 300.061 186.69 298.775 180.539 298.36C181.577 294.489 182.914 290.704 184.539 287.04C189.899 277.04 200.179 270.74 210.059 271.32C210.135 271.335 210.213 271.333 210.287 271.315C210.362 271.296 210.431 271.261 210.491 271.212C210.55 271.163 210.598 271.102 210.631 271.033C210.664 270.963 210.681 270.887 210.681 270.81C210.681 270.733 210.664 270.657 210.631 270.588C210.598 270.518 210.55 270.457 210.491 270.408C210.431 270.359 210.362 270.324 210.287 270.306C210.213 270.287 210.135 270.285 210.059 270.3C203.095 269.938 196.257 272.265 190.959 276.8C181.379 284.68 179.879 295.52 178.539 298.22C173.016 297.825 167.467 297.999 161.979 298.74C161.219 292.74 161.139 281.78 168.539 274.96C169.039 274.52 168.339 273.78 167.839 274.22C159.839 281.58 159.719 292.76 160.459 298.96C157.062 299.321 153.711 300.032 150.459 301.08C150.414 301.107 150.376 301.144 150.349 301.19C150.323 301.236 150.309 301.287 150.309 301.34C150.309 301.393 150.323 301.445 150.349 301.49C150.376 301.536 150.414 301.574 150.459 301.6C154.571 305.34 158.284 309.495 161.539 314C163.739 317.08 159.959 318.9 157.939 315.58C156.264 312.737 154.407 310.004 152.379 307.4C142.919 296.6 131.319 296.1 116.599 295.4L72.9194 293.66C68.9194 293.5 66.4594 289.66 72.9194 290.04L94.9194 291.24C94.9834 291.223 95.04 291.186 95.0803 291.133C95.1207 291.081 95.1426 291.016 95.1426 290.95C95.1426 290.884 95.1207 290.82 95.0803 290.767C95.04 290.715 94.9834 290.677 94.9194 290.66C93.0553 290.087 91.2737 289.273 89.6194 288.24C90.2994 281.62 92.5194 276.9 96.3794 273.86C100.006 276.748 104.145 278.926 108.579 280.28C105.939 283.464 104.521 287.485 104.579 291.62C104.579 292.12 105.919 292.12 105.919 291.62C105.747 287.574 107.103 283.612 109.719 280.52C115.837 281.937 122.244 281.398 128.039 278.98C125.039 282.88 124.899 288.36 125.179 293.3C125.179 293.66 126.459 293.86 126.439 293.3C126.219 289.02 125.819 281.08 130.699 277.8C134.019 276.248 137.257 274.526 140.399 272.64C142.279 278.52 146.399 276.14 147.039 272.12C147.397 272.602 147.863 272.992 148.399 273.26C142.805 279.788 140.029 288.268 140.679 296.84C140.705 296.978 140.778 297.103 140.886 297.192C140.993 297.282 141.129 297.331 141.269 297.331C141.41 297.331 141.545 297.282 141.653 297.192C141.761 297.103 141.834 296.978 141.859 296.84C141.263 288.366 144.038 279.999 149.579 273.56C150.879 273.56 151.859 272.2 152.179 270.92C152.879 270.28 153.439 269.8 153.999 269.36C154.559 268.92 153.999 268.2 153.399 268.56L152.439 269.32C152.517 268.213 152.361 267.102 151.979 266.06L174.179 272.06C174.859 272.24 174.619 272.2 175.499 272.06C191.939 269.16 202.439 267.3 209.159 266.06C213.999 267.36 218.839 268.86 224.799 270.94ZM220.219 263.06C217.079 263.52 181.099 269.8 175.719 270.78L192.879 232.12C192.923 232.067 192.947 231.999 192.947 231.93C192.947 231.861 192.923 231.794 192.879 231.74C190.419 230.1 190.479 230.08 190.279 230.14C190.079 230.2 190.959 228.32 177.179 259.22C173.979 259.22 170.739 259 167.599 258.74C167.561 258.05 167.36 257.378 167.013 256.78C166.665 256.182 166.181 255.675 165.599 255.3C157.719 250.44 155.759 251.56 151.599 254.62C150.407 255.624 149.055 256.422 147.599 256.98C146.219 256.178 145.013 255.109 144.052 253.835C143.09 252.56 142.392 251.107 141.999 249.56C143.217 249.679 144.442 249.679 145.659 249.56C163.939 245.92 174.719 227.56 185.279 223.22C185.37 224.095 185.786 224.904 186.446 225.486C187.105 226.068 187.96 226.38 188.839 226.36C192.399 226.92 196.839 226.36 198.179 223.02C198.564 221.826 198.653 220.556 198.439 219.32C198.439 218.22 198.119 213.6 197.819 210.02C210.801 210.415 223.704 207.865 235.559 202.56C229.819 208.98 221.959 219.08 221.559 219.7C221.515 219.77 221.486 219.847 221.472 219.928C221.458 220.009 221.461 220.092 221.48 220.172C221.498 220.252 221.532 220.328 221.581 220.394C221.629 220.461 221.689 220.517 221.759 220.56L224.399 222.08L191.699 227.72C191.641 227.731 191.588 227.758 191.545 227.799C191.502 227.84 191.473 227.893 191.46 227.95C191.447 228.008 191.452 228.068 191.473 228.123C191.494 228.178 191.531 228.226 191.579 228.26C194.639 230.38 194.519 230.36 194.719 230.26L238.719 223.16C234.199 234.12 221.779 259.54 220.219 263.06ZM233.219 238.16L237.219 229.4L241.059 231.52C239.519 232.88 235.619 236.1 233.219 238.16ZM306.339 222.16L310.019 223.1C305.141 224.858 300.489 227.187 296.159 230.04C292.268 233.111 289.003 236.899 286.539 241.2C284.539 244.24 283.459 242.3 284.439 240.54C286.373 237.108 288.829 233.998 291.719 231.32C291.762 231.282 291.793 231.232 291.808 231.177C291.823 231.122 291.822 231.064 291.805 231.009C291.788 230.955 291.756 230.906 291.713 230.869C291.669 230.832 291.616 230.808 291.559 230.8C289.522 230.446 287.516 229.931 285.559 229.26C282.679 229.26 278.779 230.42 273.559 233.26C271.259 234.46 271.319 232.36 272.599 231.64C275.206 230.023 278.087 228.898 281.099 228.32C281.161 228.297 281.213 228.257 281.251 228.203C281.288 228.149 281.308 228.086 281.308 228.02C281.308 227.955 281.288 227.891 281.251 227.838C281.213 227.784 281.161 227.743 281.099 227.72C274.659 225.164 268.96 221.039 264.519 215.72C264.463 215.665 264.388 215.634 264.309 215.634C264.231 215.634 264.155 215.665 264.099 215.72C252.939 224.12 254.739 222.48 242.859 231.28L237.639 228.48C240.419 222.48 240.339 222.78 240.179 222.48C237.899 219.68 237.979 219.68 237.739 219.72L226.099 221.72L222.839 219.72C229.69 210.547 237.282 201.951 245.539 194.02C247.753 191.965 250.09 190.048 252.539 188.28C259.599 183.38 266.019 182.5 275.479 187.12C279.699 189.421 283.667 192.156 287.319 195.28C294.779 201.28 298.779 204.22 305.919 204.92C310.682 205.189 315.46 204.975 320.179 204.28C324.619 204.92 334.399 206.28 338.499 205.4C338.231 207.981 337.626 210.516 336.699 212.94C336.684 212.994 336.683 213.05 336.696 213.105C336.709 213.159 336.737 213.208 336.775 213.249C336.813 213.289 336.862 213.319 336.915 213.335C336.968 213.351 337.025 213.353 337.079 213.34C339.51 212.5 342.014 211.891 344.559 211.52C348.062 211.044 351.617 211.862 354.559 213.82C355.219 214.3 355.399 215.1 355.199 215.38C354.999 215.66 354.539 215.6 353.579 214.96C348.959 211.9 341.279 213.78 335.919 215.46C335.841 215.499 335.778 215.562 335.739 215.64C334.659 218.24 334.519 218.08 334.659 218.34C334.799 218.6 334.959 218.48 335.159 218.48C339.941 218.746 344.469 220.719 347.919 224.04C348.639 224.68 348.859 225.82 348.579 226.04C347.459 227.34 341.779 216.32 320.579 220.04C317.838 220.527 315.132 221.195 312.479 222.04C310.479 221.72 307.699 221.2 306.579 220.94C306.499 220.924 306.417 220.925 306.337 220.941C306.257 220.957 306.181 220.989 306.113 221.034C306.045 221.08 305.987 221.138 305.942 221.206C305.897 221.274 305.865 221.35 305.849 221.43C305.834 221.51 305.834 221.593 305.85 221.673C305.866 221.753 305.898 221.829 305.943 221.897C305.989 221.964 306.047 222.023 306.115 222.068C306.183 222.113 306.259 222.144 306.339 222.16ZM320.679 255.72C319.521 254.008 319.03 251.93 319.299 249.88C321.499 253 326.679 255.24 329.299 256.22C341.919 260.44 363.079 259.52 372.839 250.64C373.91 249.689 374.683 248.449 375.067 247.069C375.45 245.689 375.426 244.227 374.999 242.86C376.265 244.108 377.029 245.776 377.147 247.549C377.265 249.322 376.728 251.076 375.639 252.48C365.999 266 330.399 267.42 320.679 255.72ZM344.559 298.74C346.745 297.945 348.888 297.037 350.979 296.02C350.979 296.48 351.119 298.36 351.159 298.88C348.961 299.076 346.748 299.03 344.559 298.74ZM352.019 294.48C352.019 295.02 350.999 295.16 350.859 294.62C350.599 293.48 349.579 279.58 349.479 278.12C342.719 278.86 331.179 281.98 327.939 287.46C327.939 287.92 327.639 289.1 327.559 289.46C328.499 293.72 334.999 296.74 340.759 298.16C342.399 298.56 341.819 299.46 340.519 299.18C336.019 298.16 329.519 295.7 327.119 291.78C326.259 296.44 325.859 299 325.579 300.36C325.299 301.72 325.159 301.86 324.779 301.8C324.399 301.74 324.219 300.98 324.259 300.62C325.259 292.92 329.779 271.32 331.479 265.52C331.517 265.385 331.606 265.27 331.728 265.201C331.85 265.131 331.994 265.113 332.129 265.15C332.265 265.187 332.38 265.277 332.449 265.399C332.518 265.52 332.537 265.665 332.499 265.8C331.919 268.42 329.419 279.98 328.499 284.74C332.819 280.74 339.839 278.02 349.399 276.84C349.119 273.28 348.859 269.58 348.599 265.5C348.599 264.76 349.639 264.78 349.699 265.5C350.079 269.1 350.479 272.92 350.819 276.74C357.079 276.28 365.559 276.88 370.819 279.82C370.9 279.849 370.974 279.894 371.035 279.953C371.097 280.012 371.145 280.084 371.177 280.163C371.208 280.243 371.223 280.328 371.219 280.413C371.215 280.499 371.193 280.582 371.154 280.658C371.115 280.734 371.061 280.801 370.994 280.855C370.927 280.908 370.85 280.947 370.767 280.968C370.684 280.989 370.598 280.992 370.514 280.977C370.43 280.962 370.35 280.929 370.279 280.88C365.579 278.44 359.059 277.5 350.879 278.02C351.079 280.24 352.119 293.3 351.999 294.48H352.019ZM352.659 298.7C352.459 296.7 352.359 295.78 352.299 295.38C359.597 291.957 366.258 287.318 371.999 281.66C372.339 282.68 372.959 284.56 373.279 285.66C371.099 292.46 359.999 297.8 352.659 298.7Z" fill="black"/>
</svg>
