<svg width="314" height="238" viewBox="0 0 314 238" fill="none" xmlns="http://www.w3.org/2000/svg">
<path fill-rule="evenodd" clip-rule="evenodd" d="M277.219 85.142C277.483 85.6865 278.49 85.8515 279.15 85.967C284.529 86.924 307.843 87.419 310.087 85.4885C312.051 83.8385 310.962 56.8775 309.048 55.7885C306.573 54.32 279.579 54.0395 277.698 55.541C276.328 56.6795 275.47 81.3305 277.219 85.142ZM278.11 55.8875C279.612 54.6335 305.979 55.574 308.355 56.729C309.625 60.128 310.45 81.479 309.213 84.515C307.2 85.901 282.532 85.8515 278.226 84.515C276.543 80.4725 277.17 56.6795 278.11 55.8875ZM211.599 53C210.945 54.1194 210.061 55.0877 209.006 55.8413C207.951 56.5949 206.748 57.1167 205.477 57.3725C205.438 57.3625 205.398 57.3616 205.358 57.3698C205.319 57.378 205.282 57.395 205.25 57.4197C205.218 57.4444 205.192 57.476 205.175 57.5122C205.157 57.5483 205.148 57.588 205.148 57.6283C205.148 57.6685 205.157 57.7082 205.175 57.7444C205.192 57.7805 205.218 57.8121 205.25 57.8368C205.282 57.8615 205.319 57.8786 205.358 57.8868C205.398 57.8949 205.438 57.894 205.477 57.884C208.381 58.643 212.16 56.003 212.16 53.099C212.173 53.0246 212.156 52.9481 212.113 52.8862C212.069 52.8243 212.003 52.7821 211.929 52.769C211.854 52.7559 211.778 52.7729 211.716 52.8162C211.654 52.8595 211.612 52.9256 211.599 53ZM198.118 38.2325V39.8825C198.118 40.1013 198.205 40.3112 198.36 40.4659C198.515 40.6206 198.725 40.7075 198.943 40.7075C199.161 40.7033 199.368 40.615 199.522 40.4612C199.676 40.3074 199.764 40.1 199.768 39.8825V38.2325C199.768 38.0137 199.681 37.8039 199.527 37.6491C199.372 37.4944 199.162 37.4075 198.943 37.4075C198.725 37.4075 198.515 37.4944 198.36 37.6491C198.205 37.8039 198.118 38.0137 198.118 38.2325ZM214.569 39.8C214.569 40.0188 214.656 40.2287 214.81 40.3834C214.965 40.5381 215.175 40.625 215.394 40.625C215.613 40.625 215.823 40.5381 215.977 40.3834C216.132 40.2287 216.219 40.0188 216.219 39.8V37.754C216.219 37.5352 216.132 37.3254 215.977 37.1707C215.823 37.0159 215.613 36.929 215.394 36.929C215.175 36.929 214.965 37.0159 214.81 37.1707C214.656 37.3254 214.569 37.5352 214.569 37.754C214.503 38.4635 214.569 39.2885 214.569 39.8Z" fill="black"/>
<path fill-rule="evenodd" clip-rule="evenodd" d="M310.235 159.161C310.127 158.977 309.973 158.824 309.789 158.716C308.37 158.023 300.648 158.369 299.048 158.435C299.328 115.156 276.525 88.1617 243.426 80.4232C237.354 79.0042 237.338 78.9052 237.173 79.0042L236.051 75.9187C239.219 75.8197 241.809 73.3777 244.713 73.8727C246.908 74.2357 248.013 76.1827 250.175 77.0077C253.838 78.3937 260.355 76.2652 262.352 72.7837C263.375 70.9687 262.467 69.0877 263.111 67.8337C264.266 66.8272 267.549 65.2102 268.49 64.0387C270.42 61.6297 270.503 56.2342 269.628 53.3137C268.05 50.0088 265.899 47.0092 263.276 44.4532C260.422 41.7035 257.892 38.6366 255.735 35.3122C253.079 30.0157 252.98 22.6897 250.785 17.1622C248.367 12.1713 244.622 7.94166 239.961 4.93567C235.409 1.72026 229.921 0.101616 224.352 0.332167C219.155 0.662167 217.125 2.87317 214.7 3.63217C212.274 4.39117 211.763 3.63217 207.819 5.36467C206.254 6.31869 204.859 7.52904 203.694 8.94517C203.199 9.47317 203.232 9.50617 202.391 9.53917C201.485 9.47101 200.575 9.47101 199.668 9.53917C198.123 9.88204 196.646 10.4786 195.296 11.3047C186.105 16.8157 188.58 27.9037 185.115 36.0547C182.756 41.5987 176.189 46.9282 175.628 52.7197C175.429 55.3826 176.002 58.0464 177.278 60.3922C181.287 67.4377 187.046 61.9102 190.032 66.2167C190.973 67.5697 191.682 68.8897 193.431 69.1537C195.659 69.4507 198.695 67.6852 200.51 66.3817C200.891 66.8263 201.323 67.225 201.797 67.5697C203.405 68.654 205.133 69.5508 206.945 70.2427L202.754 76.1002C194.9 75.2092 182.838 77.7502 175.067 80.1427C174.786 78.1627 172.344 61.8112 170.496 61.0192C167.939 59.8972 141.093 63.0157 139.46 64.7812C138.255 66.0682 140.417 90.5707 142.76 94.2337C143.106 94.7947 144.294 94.8112 144.954 94.8277C141.093 97.4677 137.364 100.141 136.028 101.114C134.988 97.5172 129.527 78.4927 127.514 75.3742C126.936 74.4667 126.408 74.4832 123.752 75.3742C122.238 67.8192 120.321 60.3506 118.01 53.0002C118.876 51.5756 119.569 50.0522 120.072 48.4627C120.687 45.945 120.777 43.3276 120.336 40.7737C122.349 41.4502 134.378 44.7502 136.325 43.7932C136.848 43.42 137.236 42.8874 137.43 42.2752C139.559 37.6222 143.205 21.7327 143.486 16.7002C143.601 16.0558 143.491 15.3912 143.172 14.8192C141.242 12.8062 115.271 5.33167 113.076 6.32167C111.74 6.93217 108.126 18.7957 107.747 20.1982C104.595 30.7747 106.196 28.4482 104.447 29.0587C102.434 29.7682 100.701 34.0087 99.9919 35.9722C99.2824 37.9357 98.5399 40.5757 99.3814 42.1267C99.0397 42.7575 98.9022 43.4788 98.9879 44.1911C99.0736 44.9033 99.3783 45.5714 99.8599 46.1032C99.3352 46.6881 98.9931 47.4137 98.8758 48.1907C98.7586 48.9677 98.8712 49.762 99.1999 50.4757C99.6784 51.9772 102.665 52.9672 104.15 53.3962C102.977 56.5557 102.002 59.7849 101.229 63.0652C99.9132 68.1554 98.8613 73.3103 98.0779 78.5092C97.5898 81.0355 97.429 83.6142 97.5994 86.1817L94.8934 87.4027C94.7893 87.4504 94.7012 87.5272 94.6397 87.6238C94.5783 87.7204 94.546 87.8327 94.5469 87.9472C94.5469 87.9472 95.0584 107.945 101.642 124.561C109.595 144.674 122.679 151.406 142.595 143.882C142.774 145.461 143.163 147.009 143.75 148.486C144.047 149.014 145.053 149.113 145.73 149.179C151.588 149.37 157.451 149.189 163.286 148.634L168.236 179.984C166.899 183.845 151.736 227.834 151.95 231.926C151.95 232.355 152.115 232.685 152.825 233.015C157.197 235.045 198.629 240.457 200.196 235.936C200.592 234.83 201.549 227.785 201.731 226.448L225.045 223.874L247.271 225.343C247.51 227.568 247.907 229.774 248.459 231.943C248.657 232.438 248.888 232.702 249.465 232.652C251.66 232.438 263.358 230.326 266.592 229.715C279 227.372 278.72 227.174 278.357 225.953C277.482 223.066 269.364 200.543 266.196 190.033C270.831 190.527 275.505 190.527 280.139 190.033C280.189 190.211 280.283 190.375 280.413 190.507C280.543 190.64 280.704 190.738 280.881 190.792C283.901 191.897 310.878 190.363 313.089 188.152C315.086 186.386 311.736 161.669 310.235 159.161ZM113.109 7.03117C113.291 6.75067 113.225 6.63516 114.677 6.84967C120.732 7.70766 140.532 14.0932 142.248 15.5947C142.578 19.3732 137.678 40.1137 135.747 42.6217C134.345 43.1002 125.039 40.7242 123.603 40.3447C112.68 37.4902 113.109 37.0447 110.618 36.4672C109.331 36.0217 109.199 36.0052 109.232 35.8237C109.236 35.7828 109.255 35.745 109.286 35.7175C109.316 35.6901 109.356 35.675 109.397 35.6752C110.882 35.6752 114.858 35.5597 115.832 34.4047C116.047 34.1698 116.207 33.8904 116.302 33.5863C116.396 33.2823 116.422 32.9612 116.378 32.6459C116.334 32.3306 116.22 32.029 116.046 31.7626C115.872 31.4962 115.641 31.2715 115.37 31.1047C113.249 30.2551 111.033 29.6677 108.77 29.3557C108.093 29.2237 107.268 28.9927 106.443 28.8937C107.582 23.7457 111.344 9.77017 113.109 7.03117ZM98.9359 85.6372V83.0797C99.0844 79.9447 100.586 71.7112 101.031 69.4507C101.757 65.7877 101.922 64.9627 104.034 57.0097C104.034 56.7952 105.305 53.2477 105.305 53.2477C105.328 53.1861 105.337 53.1203 105.332 53.0548C105.328 52.9893 105.309 52.9255 105.278 52.8678C105.247 52.81 105.204 52.7596 105.151 52.7198C105.099 52.68 105.039 52.6519 104.975 52.6372C104.793 52.6372 100.503 51.5812 100.025 50.2117C99.5464 48.8422 99.4474 47.1922 100.652 46.4662C100.696 46.434 100.732 46.3919 100.757 46.3431C100.782 46.2944 100.795 46.2404 100.795 46.1857C100.795 46.1309 100.782 46.077 100.757 46.0282C100.732 45.9795 100.696 45.9373 100.652 45.9052C100.125 45.4723 99.7698 44.8648 99.6517 44.1929C99.5337 43.5209 99.6602 42.8289 100.008 42.2422C100.388 41.4667 98.3584 41.8462 100.767 36.2857C101.378 34.9162 103.44 30.7087 104.843 30.2467C106.085 30.1255 107.338 30.266 108.522 30.6592C110.59 30.9849 112.623 31.5042 114.594 32.2102C114.72 32.2775 114.828 32.3729 114.91 32.4889C114.993 32.6049 115.047 32.7384 115.07 32.8789C115.092 33.0195 115.082 33.1633 115.039 33.2991C114.997 33.435 114.924 33.5592 114.825 33.6622C114.101 34.073 113.306 34.347 112.482 34.4707C107.285 35.4937 108.209 34.3552 107.532 36.1207C105.547 36.0042 103.562 36.3605 101.741 37.1602C101.031 37.3087 101.328 37.7707 101.84 37.6882C104.051 36.9637 106.415 36.8441 108.687 37.3417C110.006 37.5826 111.295 37.9643 112.532 38.4802C113.654 38.9359 114.65 39.6546 115.436 40.5757C115.576 40.9247 115.629 41.303 115.588 41.677C115.548 42.0511 115.416 42.4095 115.205 42.7207C114.809 43.3312 112.895 42.9187 112.169 42.7207C111.179 42.4237 110.139 42.1762 109.166 41.8627C107.796 41.4337 107.945 41.3182 107.516 41.3512C106.003 41.5656 104.522 41.9703 103.11 42.5557C103.07 42.5602 103.032 42.5739 102.998 42.5955C102.964 42.6172 102.936 42.6463 102.915 42.6806C102.894 42.7149 102.881 42.7536 102.878 42.7936C102.874 42.8337 102.879 42.874 102.894 42.9116C102.908 42.9492 102.93 42.983 102.96 43.0105C102.989 43.038 103.024 43.0585 103.063 43.0703C103.101 43.0821 103.142 43.085 103.181 43.0787C103.221 43.0725 103.259 43.0572 103.292 43.0342C104.556 42.6779 105.847 42.4295 107.153 42.2917C107.895 42.2917 107.417 42.2917 109.281 43.0342C110.123 43.3477 110.931 43.5952 111.822 43.8922C112.396 44.0886 112.987 44.2268 113.588 44.3047C114.644 45.2947 115.403 47.6047 113.984 48.0172C113.426 48.1133 112.853 48.0445 112.334 47.8192C108.555 46.5817 111.113 45.6907 102.912 47.3737C102.845 47.382 102.784 47.4157 102.741 47.4678C102.698 47.52 102.677 47.5867 102.681 47.6542C102.681 48.0832 102.962 47.8192 107.499 47.6542C108.048 47.599 108.601 47.599 109.149 47.6542C110.568 48.3802 112.68 49.6177 114.314 49.1392C116.31 48.4957 116.244 46.2847 114.957 44.6677C114.495 44.1067 114.446 44.2717 114.842 44.2057C115.131 44.1742 115.411 44.0833 115.664 43.9385C115.917 43.7936 116.137 43.5981 116.31 43.3642C116.701 42.8251 116.92 42.1805 116.937 41.515C116.955 40.8495 116.771 40.1942 116.409 39.6352L119.181 40.4602C119.73 43.0158 119.685 45.6633 119.049 48.1987C118.872 48.8176 118.641 49.4195 118.356 49.9972C117.152 52.5382 116.706 52.6207 116.855 53.0992C119.148 60.5545 121.037 68.128 122.514 75.7867C116.294 77.9647 104.892 82.9807 98.9359 85.6372ZM229.5 200.296C236.562 200.593 251.742 201.137 258.705 200.923C258.227 203.002 257.93 204.322 257.847 204.619C254.531 204.619 233.097 200.906 229.5 200.296ZM261.378 199.454C256.956 200.494 199.553 198.25 194.636 196.154C195.147 192.458 199.965 171.685 200.939 167.444C205.27 168.77 209.775 169.437 214.304 169.424C215.954 170.282 218.676 171.767 220.31 172.543C220.128 173.945 219.683 177.262 220.673 178.252C221.663 179.242 244.449 187.607 264.431 189.95C263.625 193.182 262.605 196.357 261.378 199.454ZM200.411 159.739C199.651 159.508 198.948 159.12 198.348 158.6C197.919 158.138 198.068 156.736 198.348 156.076C198.502 155.755 198.774 155.506 199.107 155.383C199.51 155.208 199.94 155.102 200.378 155.069C200.509 155.066 200.636 155.023 200.742 154.946C200.848 154.869 200.928 154.761 200.971 154.637C201.014 154.513 201.018 154.379 200.983 154.253C200.948 154.127 200.875 154.014 200.774 153.931C199.809 153.118 199.136 152.011 198.86 150.779C198.86 149.872 199.206 148.931 200.658 148.106C202.308 148.238 207.258 152.33 209.552 149.971C211.845 147.611 209.139 142.084 211.697 141.622C214.254 141.16 215.541 148.849 215.987 149.69C217.472 152.578 221.465 154.64 223.742 157.016C222.367 161.934 221.265 166.925 220.442 171.965C217.142 170.2 214.7 168.665 214.452 168.665C211.004 168.55 201.747 167.593 199.338 165.134C198.91 164.803 198.617 164.328 198.513 163.796C198.41 163.265 198.504 162.714 198.777 162.247C198.953 161.937 199.19 161.665 199.473 161.45C199.757 161.234 200.082 161.079 200.427 160.993C200.569 160.958 200.694 160.877 200.783 160.762C200.872 160.647 200.92 160.505 200.918 160.359C200.916 160.214 200.865 160.073 200.773 159.96C200.681 159.848 200.553 159.77 200.411 159.739ZM218.792 104.794C215.727 104.5 212.647 104.379 209.568 104.431C209.172 104.431 208.842 104.629 208.727 105.008C208.446 106.064 203.777 140.384 203.546 142.067C202.556 125.567 201.533 108.193 200.774 95.4547C206.516 104.612 207.011 105.52 207.918 104.876C210.978 102.36 213.872 99.6483 216.581 96.7582C217.076 98.5897 217.868 101.576 218.792 104.794ZM233.889 99.0022C232.767 97.3522 231.662 95.7022 231.249 95.0917L236.579 81.6772L233.889 99.0022ZM237.734 80.0602C243.975 81.3471 250.06 83.2997 255.884 85.8847C255.636 86.6602 252.452 96.3952 248.64 108.011C246.891 107.797 236.876 106.576 233.79 106.246L237.734 80.0602ZM230.985 96.9232L233.592 100.85L232.767 106.13L230.21 105.8C230.589 102.22 230.853 98.8207 230.985 96.9232ZM276.542 114.331C276.521 116.479 276.311 118.621 275.915 120.733C270.255 119.281 220.887 107.137 215.871 109.991C213.363 111.443 205.113 145.301 204.321 148.354L203.727 148.057C206.334 129.725 209.799 105.685 209.799 105.619C215.426 104.975 269.628 111.113 276.542 114.331ZM247.749 148.832C244.053 148.585 229.385 147.859 226.299 149.905C225.821 150.235 225.623 150.301 223.923 156.406C221.729 154.079 218.049 151.885 216.812 149.294C216.251 148.156 215.343 139.84 211.499 140.483C206.318 141.358 212.934 152.033 205.278 148.733C205.773 146.638 213.891 111.691 216.152 110.404C220.937 107.681 273.126 120.964 279.726 122.828C279.347 126.854 274.496 148.337 273.605 152.264C265.06 150.622 256.427 149.476 247.749 148.832ZM222.339 33.4147C223.263 34.0417 223.23 35.5432 223.065 36.6322C221.91 44.0077 214.518 48.4792 209.387 41.4172C208.215 39.7672 207.308 34.5202 208.1 33.3652C208.628 32.6887 212.885 32.6557 213.743 32.6557C215.327 32.6722 221.514 32.9197 222.273 33.4147H222.339ZM202.688 34.6027C202.688 37.7047 201.648 42.8527 198.893 44.3377C194.454 46.6477 189.95 42.9847 189.834 38.2162C189.665 36.4753 189.749 34.7192 190.082 33.0022L190.247 32.9197C189.983 32.4577 201.582 32.3092 202.622 33.3487C202.657 33.7659 202.657 34.1854 202.622 34.6027H202.688ZM208.43 70.5232C211.284 71.3482 215.888 70.9522 218.099 68.6917C218.145 68.6426 218.171 68.5777 218.171 68.5102C218.171 68.4426 218.145 68.3777 218.099 68.3287C217.719 67.8667 218.099 68.7577 213.809 69.4012C209.519 70.0447 206.928 69.4012 202.589 66.5797C200.594 64.7472 199.101 62.4356 198.249 59.8642C196.473 55.5122 195.36 50.9179 194.949 46.2352C196.502 46.4895 198.096 46.2287 199.487 45.4927C200.837 44.7031 201.883 43.4828 202.457 42.0277C201.9 43.7713 201.443 45.5452 201.087 47.3407C201.01 47.5706 200.999 47.8174 201.054 48.0535C201.109 48.2896 201.229 48.5056 201.401 48.6772C202.542 49.3745 203.885 49.6653 205.212 49.5022C205.251 49.5122 205.292 49.5131 205.332 49.5049C205.371 49.4967 205.408 49.4796 205.44 49.455C205.472 49.4303 205.497 49.3987 205.515 49.3625C205.533 49.3264 205.542 49.2867 205.542 49.2464C205.542 49.2062 205.533 49.1665 205.515 49.1303C205.497 49.0942 205.472 49.0626 205.44 49.0379C205.408 49.0132 205.371 48.9961 205.332 48.9879C205.292 48.9798 205.251 48.9807 205.212 48.9907C204.234 48.8817 203.289 48.5668 202.44 48.0667C202.061 47.8027 202.226 47.9677 202.341 47.4232C202.457 46.8787 204.602 39.0082 204.717 38.5132C205.229 38.5132 207.176 38.2492 207.176 37.7707C207.176 37.2922 205.625 37.1602 205.047 37.1932C205.047 36.9787 205.146 36.7972 205.196 36.6322C205.222 36.5665 205.221 36.4931 205.193 36.4282C205.166 36.3632 205.113 36.3119 205.047 36.2857C204.982 36.2594 204.908 36.2603 204.843 36.2882C204.778 36.316 204.727 36.3685 204.701 36.4342C204.123 37.5562 204.519 37.1437 203.744 37.3417C204.042 35.8161 204.042 34.2473 203.744 32.7217C202.803 31.2697 197.144 31.5997 195.296 31.7152C196.236 26.1877 199.899 23.4652 202.143 19.0432C202.772 18.0168 203.61 17.1342 204.602 16.4527C205.097 16.3207 206.07 17.5582 206.664 17.8552C207.258 18.1522 207.819 19.7857 208.314 20.3467C209.871 22.1188 211.664 23.6679 213.644 24.9502C215.294 26.1217 217.868 26.3032 218.99 27.8047C219.464 29.0815 219.693 30.436 219.666 31.7977C217.538 31.6657 208.661 31.5337 207.605 33.0517C206.648 34.2727 207.06 39.8497 208.463 41.9947C211.994 47.3407 217.422 47.6707 221.663 42.8527C222.119 42.2839 222.506 41.6637 222.818 41.0047C225.986 45.9547 228.477 48.9082 228.593 54.7162C228.725 62.0752 226.646 74.2687 234.615 75.8032L235.985 79.5817C229.385 96.1807 229.731 95.1412 229.731 95.3062C229.731 95.4712 229.418 100.256 228.84 105.734C225.672 105.404 222.719 105.124 220.095 104.909C219.897 104.233 217.439 95.4877 217.488 95.3062C217.736 94.4812 216.498 92.8642 215.541 91.4287C211.953 86.2328 208.034 81.2726 203.81 76.5787L208.43 70.5232ZM202.622 77.0242C202.902 77.4532 214.782 90.5212 216.234 95.3227C213.565 98.2816 210.681 101.039 207.605 103.573C206.499 102.121 203.513 97.3357 200.675 92.8642C200.163 84.2347 199.817 78.2287 199.734 76.9747C200.658 76.9087 201.698 76.9582 202.556 77.0242H202.622ZM143.7 93.5242C141.819 90.2242 139.212 68.7742 139.823 65.4742C139.823 65.1772 139.823 65.0782 141.209 64.6987C147.116 63.1642 167.84 61.3987 170.018 62.1412C171.668 65.3587 175.281 86.3632 174.423 89.5972C172.74 90.9502 148.551 94.3657 143.634 93.5242H143.7ZM144.855 147.809C142.958 144.08 141.555 120.172 142.496 119.264C143.898 117.911 170.232 116.756 172.724 117.73C174.374 121.195 176.717 142.48 175.743 145.367C173.499 147.05 148.749 148.7 144.789 147.809H144.855ZM182.525 120.155C183.713 119.842 191.996 117.73 192.986 117.136C193.695 116.723 194.504 118.06 180.627 79.9777C182.277 78.4597 196.698 76.5127 198.975 77.2222C198.975 78.1297 201.137 116.641 202.836 147.545C202.028 147.149 200.856 146.539 200.114 146.951C197.012 148.601 196.814 151.34 199.107 154.013C198.679 154.118 198.281 154.322 197.946 154.609C197.611 154.895 197.347 155.256 197.177 155.663C196.912 156.283 196.8 156.956 196.849 157.628C196.898 158.299 197.106 158.95 197.457 159.524C197.842 159.892 198.282 160.199 198.761 160.432C198.268 160.762 197.879 161.225 197.639 161.768C197.423 162.236 197.294 162.739 197.259 163.253L182.525 120.155ZM223.593 222.835L202.044 225.227C202.143 224.435 204.569 205.312 205.344 198.827C209.832 199.223 215.244 199.57 221.036 199.883C221.993 211.78 223.676 219.997 223.527 222.835H223.593ZM224.732 222.703C224.963 218.941 221.861 200.081 221.844 199.916L223.494 199.999C229.104 201.038 243.558 203.596 245.126 203.86C245.654 209.173 246.974 221.548 247.287 224.089C222.686 222.505 225.342 222.637 224.649 222.703H224.732ZM312.281 187.393C310.631 188.713 286.392 190.924 281.393 189.835C279.462 186.089 278.093 162.197 279.033 161.29C280.452 159.92 306.786 158.798 309.245 159.755C310.796 163.204 313.188 184.571 312.215 187.393H312.281Z" fill="black"/>
<path fill-rule="evenodd" clip-rule="evenodd" d="M144.89 175.265C144.758 174.671 144.576 173.813 144.098 173.615C142.448 172.625 131.574 172.427 129.644 172.394C129.215 164.524 128.456 155.432 127.218 152.99C126.41 151.34 73.0818 151.175 71.2503 151.159C71.3823 142.282 71.3988 128.752 71.2503 119.809C73.5768 119.809 85.1928 119.809 86.7933 118.489C88.8393 116.839 87.4698 94.8111 86.5458 90.4386C86.4138 89.8446 86.2158 88.9866 85.7538 88.7886C83.3448 87.3531 56.3178 87.0066 54.4038 88.5411C53.3973 89.3826 53.0178 99.6951 52.9683 100.999C49.1898 100.999 25.8258 100.52 17.4768 100.718V87.2376C19.6383 87.2376 32.3268 87.5841 33.9768 86.1981C35.9733 84.5481 35.3133 57.5871 33.4158 56.4981C31.5183 55.4091 19.6713 55.0626 17.6253 55.0131C17.6253 52.6701 17.4438 46.7631 17.4273 46.6146C25.0668 46.3341 45.1968 46.9776 53.4963 46.9776C53.4963 49.5681 53.3478 58.7916 54.4368 61.1511C54.7008 61.7121 55.7073 61.8771 56.3673 61.9926C61.6143 62.9166 85.0113 63.4611 87.3048 61.5141C89.5983 59.5671 87.9978 34.8996 86.6613 32.2431C86.5728 32.0522 86.4364 31.8873 86.2653 31.7646C83.7738 30.2961 56.7798 30.1146 54.9153 31.5171C53.8428 32.4246 53.4798 44.2386 53.4468 45.6576C45.0153 45.6576 25.1823 45.0141 17.3283 45.2946C17.3283 42.1101 17.1633 38.8926 17.1633 35.7246C19.5063 35.7246 33.6633 35.5101 35.4288 33.9591C37.1943 32.4081 35.4288 7.41063 34.0098 4.70463C33.9216 4.51286 33.7779 4.35194 33.5973 4.24263C31.0893 2.84013 4.0953 3.26913 2.2473 4.82013C0.844805 6.04113 0.597305 30.7086 2.4783 34.5201C2.6079 34.733 2.80558 34.8958 3.0393 34.9821C4.92031 35.7741 13.6983 35.7906 15.7608 35.7906C15.7608 43.1661 16.0908 49.1556 16.1568 55.0461C14.5068 55.0461 3.2538 54.7986 1.9998 55.8051C0.745805 56.8116 -0.772195 81.4626 0.976805 85.5051C1.2243 86.0496 2.2308 86.2476 2.8908 86.3631C7.2637 86.9946 11.673 87.3419 16.0908 87.4026V111.757C14.5233 111.757 3.7818 111.559 2.5773 112.532C1.3728 113.506 -0.211195 138.19 1.53781 142.232C1.78531 142.793 2.79181 142.975 3.4518 143.107C8.7978 144.13 32.0958 145.021 34.3893 143.107C36.6828 141.193 35.4948 116.459 34.2408 113.836C34.1516 113.641 34.0155 113.471 33.8448 113.341C32.0463 112.252 19.5393 111.889 17.3448 111.839V102.302C25.8918 102.088 48.2988 102.566 52.8198 102.583C52.8198 105.371 52.5558 115.882 53.7438 118.439C53.8517 118.661 54.0408 118.832 54.2718 118.918C56.4003 119.891 67.4718 120.089 69.7323 120.106C69.9468 129.082 69.9303 142.645 69.7323 151.456C47.5563 151.34 24.5553 151.571 19.9188 152.512C19.4238 152.611 18.6153 152.776 18.5823 153.469C18.5823 153.469 17.6913 167.725 17.2788 172.625C15.8103 172.625 6.1578 172.625 5.0358 173.615C3.9138 174.605 2.6763 199.322 4.4913 203.315C4.7388 203.86 5.7453 204.041 6.4053 204.157C11.6688 205.081 35.0493 205.625 37.3428 203.678C39.6363 201.731 38.0193 177.014 36.6993 174.407C36.7655 174.249 36.7867 174.077 36.7605 173.908C36.7343 173.739 36.6617 173.58 36.5508 173.45C34.6533 172.312 21.1068 172.213 18.8628 172.196C19.2588 167.246 20.1168 153.469 20.1168 153.469C25.7598 151.819 119.628 152.017 126.195 153.683C127.202 156.092 127.845 164.359 128.373 172.262C126.723 172.262 114.183 172.163 112.88 173.252C111.576 174.341 110.586 199.108 112.335 202.952C112.451 203.174 112.645 203.344 112.88 203.431C115.8 204.751 142.811 205.345 145.187 203.315C145.595 202.82 145.833 202.207 145.863 201.566C146.639 196.55 145.962 180.215 144.89 175.265ZM55.2618 31.7151C56.7303 30.4941 83.0643 31.3686 85.5063 32.5566C86.1191 35.1608 86.4728 37.8193 86.5623 40.4931C75.9858 39.4206 61.6968 40.2456 54.4038 40.4931C54.4368 39.5031 54.7008 32.1111 55.2618 31.6656V31.7151ZM54.3873 41.4006C66.3993 41.7801 80.6553 41.1531 86.6118 41.2191C86.7933 44.1396 87.4368 57.8181 86.3643 60.3426C85.1433 61.1841 75.5238 61.3326 74.0553 61.3491C70.5078 61.3491 58.8093 61.3491 55.3773 60.3591C54.1893 57.4716 54.3048 44.6511 54.3873 41.3511V41.4006ZM2.6763 4.95213C4.1448 3.66513 30.5283 3.91263 32.9373 4.95213C33.4787 6.79124 33.8217 8.68301 33.9603 10.5951C23.3017 10.2809 12.6351 10.8327 2.0658 12.2451C2.0823 11.6511 2.1978 5.38113 2.6763 4.95213ZM3.5508 33.5796C2.2143 30.5931 2.0328 16.7001 2.0658 12.8061C3.4518 12.6411 33.4158 11.1561 34.0263 11.1561C34.3893 14.4561 35.6763 29.8506 34.5213 32.7381C32.3103 34.3386 7.47781 34.6521 3.5508 33.5796ZM2.4123 55.9041C3.9138 54.6996 30.2313 56.0031 32.6568 57.2241C33.1965 59.6862 33.4949 62.1951 33.5478 64.7151C33.7128 64.7151 10.2168 63.7911 1.4553 64.0716C1.5048 63.0981 1.9008 56.3001 2.4123 55.9041ZM33.5148 141.704C31.6998 142.892 7.36231 142.744 2.5443 141.209C1.3563 138.256 1.7193 124.709 1.8843 121.261C2.0493 121.261 24.6048 123.01 34.0428 121.904C34.2078 124.924 34.6533 139.13 33.5148 141.688V141.704ZM33.1188 113.885C33.656 116.354 33.9598 118.867 34.0263 121.393C34.1913 121.393 10.7448 120.469 1.91731 120.733C1.99084 118.08 2.2722 115.438 2.7588 112.829C2.8743 112.499 2.7588 112.433 4.2438 112.268C10.1508 111.608 31.0068 112.813 33.1188 113.869V113.885ZM2.0658 84.5316C0.894305 81.5781 1.2573 68.1306 1.4223 64.5996C1.6203 64.5996 24.1098 66.3486 33.5808 65.2431C33.7458 68.2791 34.2078 82.4031 33.0528 85.0431C30.8253 86.4951 6.0423 85.8021 2.0658 84.5316ZM36.9138 182.954C37.1118 186.023 37.7388 199.669 36.6663 202.259C34.9173 203.48 10.4808 203.728 5.6793 202.259C4.4913 199.388 4.6068 186.469 4.6893 183.02C15.3318 183.433 25.0008 182.954 36.9138 182.954ZM35.8083 174.473C36.4187 177.073 36.7778 179.725 36.8808 182.393C26.3868 181.337 11.6028 182.179 4.7058 182.492C4.7058 181.453 5.01931 174.077 5.56381 173.632C7.04881 172.411 33.3663 173.285 35.8083 174.473ZM54.7008 88.7556C56.2188 87.4851 82.5528 88.4421 84.9453 89.5971C85.5729 92.3057 85.9376 95.0685 86.0343 97.8471C78.8733 97.4676 61.0533 96.3291 53.8593 97.2201C53.9418 96.2796 54.2223 89.2011 54.7008 88.7556ZM54.8658 117.35C53.6613 114.463 53.7933 101.263 53.8923 97.8141C56.2188 97.5831 73.0488 98.6391 80.8698 98.5731C82.8663 98.5731 84.6648 98.4906 86.1168 98.4411C86.2983 101.378 86.9088 114.793 85.8528 117.334C83.6913 118.868 58.8753 118.621 54.8658 117.35ZM113.16 173.632C114.645 172.411 140.963 173.285 143.421 174.473C144.026 177.079 144.38 179.736 144.477 182.41C134.082 181.354 119.034 182.195 112.319 182.41C112.335 181.535 112.616 174.127 113.16 173.681V173.632ZM144.279 202.259C142.481 203.48 118.044 203.728 113.292 202.259C112.088 199.405 112.203 186.436 112.302 183.004C123.407 183.433 131.739 183.004 144.51 183.004C144.708 186.04 145.335 199.735 144.279 202.309V202.259Z" fill="black"/>
</svg>
