<svg width="30" height="30" viewBox="0 0 30 30" fill="none" xmlns="http://www.w3.org/2000/svg">
    <path d="M18.0379 23.5254C17.8004 23.5254 17.5629 23.4379 17.3754 23.2504C17.0129 22.8879 17.0129 22.2879 17.3754 21.9254L24.3004 15.0004L17.3754 8.07539C17.0129 7.71289 17.0129 7.11289 17.3754 6.75039C17.7379 6.38789 18.3379 6.38789 18.7004 6.75039L26.2879 14.3379C26.6504 14.7004 26.6504 15.3004 26.2879 15.6629L18.7004 23.2504C18.5129 23.4379 18.2754 23.5254 18.0379 23.5254Z" fill="#28373A" />
    <path d="M25.4125 15.9375L4.375 15.9375C3.8625 15.9375 3.4375 15.5125 3.4375 15C3.4375 14.4875 3.8625 14.0625 4.375 14.0625L25.4125 14.0625C25.925 14.0625 26.35 14.4875 26.35 15C26.35 15.5125 25.925 15.9375 25.4125 15.9375Z" fill="#28373A" />
</svg>